<svg xmlns="http://www.w3.org/2000/svg" xml:space="preserve" width="2000" height="517" data-id="lg_9bDjZQzDJKmeGT92lA" data-version="1" viewBox="0 0 2000 517"><g data-padding="20"><g transform="translate(10 9.282)scale(.9641)"><rect width="475.163" height="467.82" x="387.817" y="-376.914" fill="none" rx="0" ry="0" transform="translate(417.99 398.58)"/><path fill="#083b10" d="M995.9 243.946q33.95 5.8 52.79 23.6t18.84 43.47q0 34.36-26.71 54.23-26.7 19.88-73.48 19.88H825.75v-11.18q6.62-3.31 17.59-5.59 10.98-2.28 26.71-3.93l4.14-229.36-48.44-9.11v-12h145.73q38.5 0 61.06 16.97 22.57 16.97 22.57 45.13 0 23.59-16.15 41.6t-43.06 26.29m-89.01-121.3v253.78l-14.49-14.49h93.98q21.94-4.97 33.95-18.21 12.01-13.25 12.01-32.71 0-24.01-18.43-38.5-18.42-14.49-49.06-14.49h-62.1v-23.19h69.56q47.61-16.97 47.61-52.57 0-21.12-14.91-33.12-14.9-12.01-40.98-12.01H892.4Z"/><path fill="#083b10" d="M1133.77 389.276q-19.88 0-40.58-3.11-20.7-3.1-41.81-9.31l13.25-24.02q19.04 5.39 39.53 8.08 20.5 2.69 42.03 2.69 12.83 0 25.66-.83 12.84-.83 25.67-2.9l-14.07 4.14q8.28-4.14 15.11-10.56 6.83-6.41 10.97-14.28 4.14-7.86 4.14-16.14 0-13.67-11.39-24.02-11.38-10.35-29.18-19.25-17.81-8.9-37.68-18.01-19.87-9.1-37.88-20.28t-29.39-25.88q-11.39-14.69-11.39-35.39 0-21.53 13.46-37.26 13.45-15.74 37.67-24.22 24.22-8.49 57.34-8.49 17.8 0 36.02 2.48 18.21 2.49 35.6 7.04l-9.11 24.84q-18.63-4.55-37.67-6.83t-38.09-2.28q-13.25 0-26.08 1.25-12.83 1.24-25.67 3.72l15.32-4.55q-11.18 6.21-18.22 16.14-7.03 9.94-7.03 21.95 0 14.9 11.38 26.08 11.39 11.18 29.19 20.28 17.8 9.11 37.88 18.01t37.88 19.67q17.8 10.76 29.19 25.04 11.38 14.29 11.38 33.75 0 21.94-14.28 38.29t-39.75 25.25q-25.46 8.91-59.4 8.91m-67.49-91.91 19.88 79.9-34.78-.41 1.66-79.49Zm168.09-100.6h-13.25l-19.04-77.01h34.77Z"/><g fill="#083b10" stroke="#fffaec" stroke-width="3.275" paint-order="stroke"><path d="M1276.037 456.483q1.795-.524 3.564-.917c2.017-.406 4.021-.812 6.117-.393 1.65.328 3.118 1.009 4.56 1.847q1.348.773 2.606 1.703c.524.406.852.957 1.218 1.467.485.669.184 1.31-.3 1.808a5.5 5.5 0 0 1-4.704 1.716c-2.594-.262-5.2-.393-7.768-.917-1.153-.235-2.083-.943-3.092-1.48a14.4 14.4 0 0 0-3.3-1.166c-.446-.118-.839-.092-1.18.275-.223.236-.537.34-.825.485a2.62 2.62 0 0 0-1.35 3.249q.276.76.302 1.559l.353 8.816.236 6.393c.053 2.58.04 5.174.105 7.755.066 2.725.131 5.45.328 8.174q.235 3.066.248 6.157c0 2.162.145 4.323.21 6.485q.092 3.09.144 6.157c0 .485.026 1.009-.563 1.192-.524.17-.943-.052-1.258-.46q-.222-.3-.615-.3c-1.27-.118-1.86-.773-1.625-2.07.668-3.668.288-7.362.34-11.043.053-3.616-.235-7.244-.209-10.86q.026-2.974 0-5.921l-.092-8.332c-.026-2.305.027-4.598-.026-6.903-.052-2.32-.183-4.638-.275-6.956-.026-.577-.157-1.062-.668-1.455-.576-.458-.904-1.165-1.454-1.676-1.087-1.022-2.49-1.337-3.825-1.756a30.1 30.1 0 0 1-8.28-3.956c-1.545-1.074-3.183-2.057-4.467-3.485-.47-.524-.864-1.1-.59-1.781.302-.76 1.023-1.061 1.796-1.166.72-.092 1.44.013 2.148.196 2.751.708 5.384 1.703 7.768 3.25a15.7 15.7 0 0 1 4.782 4.545c.471.72.982 1.467 1.795 1.9.157.09.314.26.51.17.25-.118.158-.38.145-.577l-.328-5.528c-.262-5.227-1.009-10.427-1.362-15.641-.092-1.467-.34-2.922-.433-4.39a5.76 5.76 0 0 0-.97-2.606 80 80 0 0 0-3.628-5.28c-1.794-2.396-3.642-4.754-5.292-7.243s-3.59-4.77-5.528-7.061a35 35 0 0 1-3-4.153c-.839-1.323-1.874-2.528-2.87-3.746-1.23-1.52-2.187-3.223-3.379-4.782-1.218-1.585-2.476-3.144-3.629-4.768-1.152-1.625-2.528-3.092-3.59-4.795-.733-1.18-1.689-2.24-2.567-3.327a22.3 22.3 0 0 1-2.79-4.48c-.97-2.097-2.437-3.878-3.655-5.817-1.585-2.541-3.93-4.375-5.83-6.602-1.938-2.267-4.48-3.655-6.955-5.188-1.363-.838-2.66-1.782-4.035-2.607-.839-.51-1.769-.864-2.62-1.35-1.27-.72-2.293-1.82-3.734-2.305-2.698-.904-5.305-2.056-8.24-2.148-2.71-.092-5.2-1.127-7.69-2.135-1.493-.603-3.052-.944-4.61-1.297-2.162-.498-4.232-1.258-6.354-1.9a75 75 0 0 0-7.78-1.9 36.7 36.7 0 0 1-6.63-2.122 127 127 0 0 1-7.153-3.026c-2.03-.956-3.943-2.135-5.947-3.104a28.8 28.8 0 0 0-6.288-2.32q-.904-.222-1.742-.59c-.63-.247-.839-.837-.878-1.426s.42-.852.917-1.075c1.048-.484 2.161-.314 3.236-.327q6.026-.066 12.065.38 3.8.288 7.585.51c2.777.158 5.528.485 8.292.656 4.1.262 8.2.366 12.275.93 2.593.367 5.082 1.166 7.598 1.939 1.572.484 3.052 1.126 4.572 1.69 2.54.943 4.794 2.45 7.1 3.812 2.096 1.244 3.89 2.855 5.79 4.375-.642-1.127-1.493-2.083-2.332-3.065-1.912-2.267-4.284-4.061-6.275-6.236-.563-.616-1.362-1.01-2.043-1.52-1.323-.995-2.49-2.174-3.812-3.17-.655-.498-1.376-.838-2.07-1.192-1.847-.943-3.432-2.227-5.044-3.51-1.31-1.05-2.777-1.887-4.27-2.66a17 17 0 0 1-5.882-4.82 35.4 35.4 0 0 0-6-5.647 27.5 27.5 0 0 1-3.065-3.052c-2.083-2.332-4.402-4.415-6.708-6.524-2.148-1.952-4.179-4.035-6.288-6.04a71 71 0 0 0-5.227-4.48c-3.419-2.66-6.93-5.226-9.85-8.45-1.86-2.042-3.643-4.152-5.529-6.17-.576-.615-1.14-1.27-1.755-1.846-.302-.288-.564-.681-.354-1.048a1.114 1.114 0 0 1 1.231-.576q3.328.707 6.537 1.86 2.188.76 4.39 1.454c4.413 1.428 8.854 2.75 13.02 4.82 2.62 1.31 5.2 2.739 7.533 4.507 2.908 2.188 5.92 4.27 8.54 6.838a64 64 0 0 1 6.197 6.89 109 109 0 0 0 6.262 7.586c1.205 1.323 2.227 2.79 3.34 4.192 2.24 2.842 4.35 5.79 7.022 8.279a31.4 31.4 0 0 1 5.502 6.537 144 144 0 0 1 4.44 7.86c1.22 2.332 2.018 4.886 3.59 7.048.21.288.367.642.813.812-.04-.655-.459-1.087-.603-1.611-.668-2.555-1.73-4.978-2.607-7.467-.616-1.756-.943-3.603-1.65-5.332-.944-2.293-1.599-4.69-2.49-6.982-1.31-3.38-2.004-6.917-2.92-10.39-.525-1.964-1.193-3.876-1.507-5.894a33 33 0 0 1-.498-6.262c.04-1.283.026-2.554.196-3.825q.131-.97.59-1.808c.432-.76 1.1-.838 1.65-.157.63.76.983 1.677 1.284 2.568 1.572 4.637 3.563 9.13 5.057 13.794q1.572 4.847 3.51 9.537a65.5 65.5 0 0 1 3.485 11.214q.826 3.576 1.847 7.113c1.022 3.537 1.782 7.153 2.476 10.768q.524 2.66.891 5.332.17 1.44.144 2.882c0 .642.144 1.192.46 1.755 1.086 1.978 2.095 4.009 3.247 5.96.59.996 1.415 1.874 2.175 2.765.406.47.681 1.022.97 1.559 1.047 2.03 2.633 3.68 3.877 5.567 1.114 1.677 2.07 3.472 3.393 5.004.89 1.035 1.795 2.057 2.476 3.25 1.035 1.833 1.952 3.733 3.21 5.436q1.218 1.637 2.515 3.21a31.4 31.4 0 0 1 2.842 4.257c1.153 1.965 2.594 3.72 3.97 5.515.563.733 1.165 1.467 1.65 2.266 1.323 2.188 3.092 4.009 4.677 6a130 130 0 0 1 5.017 6.864c1.56 2.24 3.236 4.376 4.913 6.537l1.087 1.415c.183-.603 0-1.1-.052-1.56-.38-3.21-.852-6.418-1.193-9.627-.288-2.738-.668-5.463-.956-8.201a212 212 0 0 0-.89-6.995c-.08-.603-.42-1.048-.76-1.546-1.27-1.9-2.96-3.445-4.376-5.2-.68-.84-1.598-1.403-2.436-2.044q-.944-.695-1.756-1.52a50 50 0 0 1-4.886-5.685 67 67 0 0 1-4.769-7.874c-1.283-2.49-2.45-5.043-3.694-7.558-.838-1.703-1.755-3.354-2.554-5.083-.59-1.258-1.048-2.568-1.533-3.865a35.4 35.4 0 0 1-1.624-6c-.144-.76-.315-1.506.118-2.266q.524-.97 1.52-.707c1.833.485 3.667.996 5.436 1.677q2.37.877 4.467 2.292c1.572 1.074 2.895 2.437 4.166 3.825a35.4 35.4 0 0 1 5.58 8.45c.63 1.284 1.232 2.58 1.952 3.85l-.943-5.252-1.664-9.157c-.563-3.091-1.048-6.21-1.742-9.274a905 905 0 0 1-2.293-10.323c-.85-3.891-1.65-7.782-2.54-11.66-.604-2.645-1.39-5.265-1.94-7.925-.327-1.598-.864-3.13-1.192-4.716-.354-1.677-1.782-2.607-2.869-3.76a33 33 0 0 1-3.196-3.785 15.7 15.7 0 0 0-5.24-4.376c-2.673-1.532-5.319-3.091-7.467-5.331q-.826-.826-1.454-1.795a5.24 5.24 0 0 0-2.214-2.07c-1.598-.786-3.157-1.624-4.782-2.358-2.738-1.218-5.593-2.057-8.45-2.921-1.886-.564-3.667-1.402-5.462-2.227-2.306-1.061-4.703-1.913-7.048-2.87a36.7 36.7 0 0 1-8.816-4.977 7.2 7.2 0 0 1-2.214-2.804c-.34-.76.432-1.781 1.454-1.873 1.336-.13 2.673.013 3.996.21 3.838.576 7.414 2.004 11.07 3.21 1.925.628 3.85 1.283 5.671 2.2 1.14.563 2.24 1.218 3.354 1.834q2.175 1.192 4.297 2.463l1.65 1.035-1.06-2.044a43.2 43.2 0 0 0-5.306-8.07 98 98 0 0 1-4.638-6.04 125 125 0 0 0-5.842-7.492l-1.9-2.358c-.563-.681-1.205-1.336-1.78-2.03a81 81 0 0 0-7.992-8.437 71 71 0 0 1-6.93-6.982c-1.795-2.11-3.524-4.284-5.568-6.183-1.336-1.245-2.83-2.28-4.205-3.46-1.074-.916-2.214-1.767-3.288-2.697-1.179-1.022-2.567-1.77-3.917-2.568-1.179-.694-2.54-.8-3.668-1.546-.314-.21-.59-.471-.904-.655-.484-.275-.85-.628-.68-1.218.196-.655.746-.917 1.375-.89q1.401.078 2.75.523a23.6 23.6 0 0 1 6.341 3.328c2.03 1.44 4.428 2.214 6.59 3.419 2.344 1.323 4.912 2.227 7.217 3.615a81 81 0 0 1 7.756 5.2 79 79 0 0 1 7.794 7.128c1.284 1.296 2.397 2.764 3.55 4.192a88 88 0 0 0 4.376 5.004 56 56 0 0 1 3.956 4.9l2.057 2.855c1.27 1.69 2.711 3.236 3.72 5.109a47 47 0 0 1 2.122 4.664q.577 1.493 1.297 2.92c.812 1.52 1.218 3.184 1.808 4.795.563 1.52 1.35 2.974 1.847 4.507.747 2.305 1.31 4.676 1.952 7.008.065.262.092.524.314.8.472-.813.315-1.677.315-2.49.04-3.694-.053-7.375-.485-11.056a67 67 0 0 0-1.402-8.515 22.3 22.3 0 0 0-2.66-6.065 189 189 0 0 1-4.02-6.878c-.996-1.82-1.992-3.733-3.407-5.28-1.82-1.977-2.79-4.374-3.825-6.76a2.6 2.6 0 0 1-.13-1.427c.078-.628.851-.943 1.52-.628a16.4 16.4 0 0 1 6.234 5.109 84 84 0 0 1 4.821 7.23c.825 1.403 1.677 2.79 2.332 4.285.524 1.192.982 2.41 1.572 3.589.89 1.795 1.598 3.668 1.978 5.646.393 2.096 1.048 4.153 1.022 6.3a111 111 0 0 1-.59 11.975c-.17 1.729-.393 3.445-.825 5.135-.249.982-.524 1.978-.603 2.973-.104 1.31.498 2.32 1.625 3.092 2.017 1.376 4.18 2.476 6.248 3.773 1.56.982 2.935 2.174 4.01 3.733 1.021 1.494 2.213 2.882 3.34 4.297.052.079.17.105.314.197.144-.93-.393-1.638-.576-2.424-.734-3.17-1.612-6.314-2.32-9.497-.89-4.01-1.558-8.07-2.5-12.065q-1.076-4.716-2.45-9.354c-1.259-4.192-2.359-8.436-3.55-12.654-.853-3.027-1.914-6.013-2.595-9.08-.563-2.514-1.375-4.964-1.926-7.48a50 50 0 0 0-2.724-8.45 94 94 0 0 1-3.17-9.13 56 56 0 0 0-2.7-7.034 186 186 0 0 0-4.57-9.13c-1.822-3.498-3.813-6.917-5.215-10.638a21 21 0 0 0-4.729-6.982 14.4 14.4 0 0 1-3.327-5.934q-.89-3.275-1.717-6.576c-.877-3.524-1.703-7.048-2.606-10.56-.72-2.802-1.73-5.54-2.188-8.422a66 66 0 0 1-.917-8.004c-.105-3.013-.315-6.026-.144-9.053.144-2.515.052-5.056.51-7.558.08-.406.132-.93.525-.983.38-.052.42.51.51.812.472 1.69 1.05 3.354 1.48 5.044.315 1.205.865 2.345 1.272 3.524a64 64 0 0 1 2.344 7.873q1.022 4.939 2.398 9.799c.471 1.637 1.284 3.17 1.886 4.768a55 55 0 0 1 2.45 8.28c.406 2.03 1.074 4.02 1.113 6.117.027 1.192-.196 2.424-.078 3.576.21 2.057-.053 4.127.367 6.144.144.72.13 1.44.144 2.162.026 2.03 1.257 3.59 1.925 5.37.93 2.503 2.568 4.599 3.852 6.89l1.873 3.447c.288-.21.21-.472.21-.695-.04-2.593.38-5.148.773-7.702.458-3.053.786-6.08-.092-9.118-.42-1.467-1.035-2.856-1.454-4.323a21 21 0 0 1-.826-5.044 81 81 0 0 0-1.113-10.034c-.288-1.716-.327-3.445-.393-5.188q-.118-3.668.616-7.244c.51-2.463.982-4.926 1.9-7.27a15.7 15.7 0 0 1 2.54-4.14 59 59 0 0 1 4.69-5.227c.184-.183.328-.472.655-.354.328.118.406.406.433.708.314 3.248.917 6.445 1.532 9.64.315 1.626.865 3.185 1.127 4.822.524 3.183 1.061 6.367 1.297 9.59.13 1.807.42 3.602.458 5.423.053 2.24-.47 4.375-1.1 6.523-.786 2.673-2.122 5.123-2.895 7.795-.8 2.712-2.07 5.253-3.236 7.82q-.288.656-.498 1.35c-.222.707-.655 1.153-1.414 1.23-.315.028-.354.237-.393.499-.42 2.882-1.048 5.725-1.52 8.594-.275 1.716-.563 3.51-.04 5.24.354 1.166.891 2.266 1.337 3.406q1.978 5.109 4.035 10.205c.89 2.2 1.663 4.44 2.554 6.64.42 1.036.917 2.058 1.284 3.106 1.074 3.04 2.148 6.078 2.934 9.222q1.022 3.944 2.267 7.847c1.035 3.34 2.253 6.629 3 10.06.117.538.366 1.049.602 1.704.498-1.375.563-2.725.852-4.008.668-3.027 1.388-6.04 1.585-9.157a12.7 12.7 0 0 0-1.808-7.808c-1.245-2.017-2.738-3.89-3.603-6.13a50 50 0 0 1-2.305-8.136c-.197-1.061-.223-2.122-.328-3.17-.144-1.415-.327-2.856-.222-4.284.21-2.87.314-5.75 1.323-8.502a26.2 26.2 0 0 1 3.118-5.633c.93-1.375 1.742-2.83 2.711-4.152 1.114-1.533 1.86-3.262 2.843-5.018.223.76-.197 1.232-.432 1.638-1.219 1.99-2.188 4.126-3.55 6.039-1.193 1.677-2.136 3.51-3.184 5.266-.943 1.559-1.126 3.34-1.454 5.057a32.8 32.8 0 0 0-.157 10.61c.42 3.027.956 6.066 2.253 8.896a34 34 0 0 0 2.921 5.043l2.385 3.51q.104.17.157.368c.078.249.052.655.34.642.354-.013.46-.42.511-.734.708-3.943 1.651-7.847 2.03-11.842.224-2.358.158-4.756.21-7.127.027-1.166.092-2.345.014-3.51q-.184-2.79-.21-5.581c0-1.114.092-2.24.065-3.354q-.078-4.401-.21-8.79c-.065-2.043-.13-4.1.053-6.144.066-.681-.157-1.375 0-2.07.026-.117 0-.275-.144-.34-.314-.131-.327.275-.563.314l.838-3.314c.066-.236.026-.63.42-.563.34.052.288.406.275.668-.04 1.808-.158 3.615-.13 5.423q.025 3.76.247 7.52c.17 2.71.223 5.423.328 8.135.105 2.646.026 5.292.301 7.925q.55 5.2.184 10.388a55 55 0 0 1-1.258 9.184c-.196.772-.21 1.585-.327 2.462.59-.537.851-1.205 1.231-1.781.786-1.205 1.637-2.371 2.371-3.616a38 38 0 0 0 4.56-12.078c.863-4.31 1.1-8.633.93-13.008-.08-1.86-.027-3.734-.119-5.594a92 92 0 0 1-.052-6.563c.04-1.73-.17-3.46.288-5.162.144-.51.367-.864.904-1.008.51-.144.812.13 1.192.445 1.126.943 1.48 2.266 1.886 3.55.72 2.345 1.467 4.69 1.926 7.1.406 2.123.668 4.27.904 6.42.21 1.925.406 3.864.943 5.75.524 1.847.576 3.76.34 5.646-.157 1.245-.13 2.529-.523 3.734a15.7 15.7 0 0 1-3.302 6.118q-1.493 1.61-2.947 3.248c-2.175 2.45-4.782 4.402-7.362 6.393q-1.887 1.428-3.236 3.38c-.327.485-.655.996-1.27 1.179-.38.105-.38.406-.367.707.157 3.223-.63 6.302-1.44 9.367-.683 2.554-1.429 5.083-2.097 7.65-.21.8.157 1.572.366 2.345q.42 1.664.865 3.315l.8 2.685q.968 3.393 1.86 6.786c.667 2.66 1.23 5.358 1.912 8.017.733 2.882 1.664 5.725 2.305 8.633.55 2.528 1.376 4.99 1.874 7.52.51 2.62 1.336 5.16 1.925 7.768.616 2.672 1.363 5.305 1.965 7.99.577 2.62 1.232 5.228 1.834 7.848.747 3.222 1.206 6.51 2.018 9.707.144.576.367.59.733.353 1.088-.694 2.136-1.454 2.516-2.79l.144-.288c1.388-1.77.93-3.642.222-5.463-1.31-3.38-2.986-6.602-4.427-9.93a48.5 48.5 0 0 1-2.424-6.523c-.458-1.638-.995-3.262-1.323-4.926-.642-3.223-1.074-6.498-.3-9.773a9.17 9.17 0 0 1 2.972-4.938 110 110 0 0 1 6-4.77 14.4 14.4 0 0 1 5.424-2.815c.59-.131.864.09.956.642a2.6 2.6 0 0 1 0 1.192 39.3 39.3 0 0 1-3.38 8.75q-1.742 3.197-3.537 6.367a15.7 15.7 0 0 0-2.135 8.03c.013 1.572.432 3.092.72 4.638.328 1.808.773 3.602 1.114 5.41.262 1.323.956 2.476 1.362 3.747.433 1.362.917 2.71 1.323 4.1.354-1.428.406-2.882.433-4.323.04-1.847.222-3.681.445-5.502.144-1.218.066-2.45.131-3.668q.118-2.32.46-4.624c.483-3.393 1.69-6.603 2.684-9.865q1.01-3.196 1.677-6.51c.812-4.192 1.362-8.437 2.725-12.51a47 47 0 0 1 3.117-7.284 73 73 0 0 1 2.686-4.73q1.31-2.004 2.751-3.916a47 47 0 0 1 4.493-5.32 46 46 0 0 1 6.773-5.37 128 128 0 0 0 10.467-7.781q1.847-1.546 3.484-3.315.485-.59.917-1.205.472-.655 1.1-.17c.38.3.551.72.197 1.113-1.637 1.86-2.004 4.284-2.882 6.472q-1.179 3.013-2.279 6.078c-.642 1.782-1.166 3.603-1.886 5.358-1.337 3.262-2.345 6.629-3.89 9.812-1.036 2.135-1.77 4.402-2.634 6.615a259 259 0 0 1-6.262 14.568q-2.057 4.48-4.048 8.986c-1.022 2.293-1.9 4.664-3.223 6.812-1.663 2.699-2.96 5.607-4.729 8.24-.746 1.114-1.323 2.319-2.056 3.445-1.468 2.267-3.04 4.468-4.467 6.747a54 54 0 0 1-3.695 5.319c-.956 1.179-1.585 2.593-2.489 3.825a14.4 14.4 0 0 1-4.152 4.035c-.092.052-.184.157-.275.157-1.166.039-.944.694-.773 1.48.55 2.41 1.113 4.834 1.506 7.284.34 2.16.93 4.27 1.31 6.419.472 2.724 1.18 5.423 1.625 8.16.366 2.189.8 4.35 1.192 6.538.524 2.908.917 5.842 1.414 8.764.524 3.052 1.01 6.104 1.717 9.13.353 1.494.93 2.948 1.008 4.52q.026.157.184.432c.432-.576.301-1.205.327-1.742.21-4.716 1.166-9.327 2.201-13.912a88 88 0 0 1 4.022-13.153c.707-1.768 1.768-3.353 2.803-4.951 1.598-2.463 3.183-4.94 4.965-7.258a28.8 28.8 0 0 1 6.524-6.21c1.965-1.335 4.192-2.095 6.275-3.156.563-.29 1.06-.708 1.585-1.088.301-.21.615-.393.956-.157.367.249.603.577.498 1.087-.328 1.599-.694 3.184-.943 4.795a33 33 0 0 1-.813 3.747c-.668 2.489-1.296 5.004-2.16 7.427q-1.534 4.31-3.276 8.528a59 59 0 0 1-5.188 10.284q-1.9 2.882-3.917 5.672c-1.807 2.476-3.576 5.004-5.58 7.336-.983 1.166-1.756 2.476-2.777 3.616-.734.825-1.18 1.834-1.612 2.947.747-.13 1.297-.524 1.86-.8a67 67 0 0 1 9.97-4.1c2.593-.811 5.292-1.23 8.004-1.532q2.332-.262 4.676-.602a13.1 13.1 0 0 1 7.598 1.414c1.48.734 1.533 2.214.184 3.158-1.192.838-2.332 1.755-3.55 2.554a13.1 13.1 0 0 1-6.51 1.978c-3.17.236-6.368.275-9.512.668-1.99.25-3.877-.275-5.816-.301-2.646-.026-5.28-.105-7.742 1.113-.354.17-.432.446-.498.76a25 25 0 0 0-.445 5.49c.026 1.95-.184 3.903.091 5.842.262 1.873.472 3.76.8 5.62q.524 2.96.628 5.973l.184 4.73q.065.825.51 1.506c.236.367.276.707-.012 1.035s-.25.694-.21 1.06q.367 3.8.694 7.586c.275 3.144.773 6.262.943 9.406l.315 5.567c.013.249-.066.59.25.694.274.079.392-.222.575-.366.983-.786 1.258-1.98 1.677-3.053a48.5 48.5 0 0 1 2.685-5.895 31.4 31.4 0 0 1 7.31-8.724 42 42 0 0 1 10.336-6.301c2.397-1.048 4.703-2.306 7.035-3.485 1.297-.655 2.28-.157 2.28 1.31s-.407 2.895-.787 4.31c-.956 3.498-3.393 5.83-6.235 7.768-3.603 2.45-7.192 4.913-11.083 6.89q-3.668 1.887-7.205 3.957c-.812.472-1.415 1.218-2.2 1.782Zm25.572-206.102c-.223-.04-.34.079-.446.196-1.572 1.586-3.445 2.817-5.214 4.166-2.947 2.24-6.065 4.27-8.986 6.563a44.5 44.5 0 0 0-8.2 8.712c-1.625 2.188-2.935 4.585-4.258 6.956a43.2 43.2 0 0 0-4.363 11.58c-.877 3.72-1.244 7.533-2.135 11.253-.51 2.122-1.179 4.205-1.873 6.275-.616 1.82-1.245 3.642-1.638 5.515q-.694 3.34-.864 6.747c-.13 2.24-.38 4.48-.577 6.707-.157 1.73-.144 3.47-.419 5.188-.105.668-.118 1.362-.183 2.187a7.9 7.9 0 0 0 1.847-2.24c.746-1.166 1.467-2.358 2.292-3.471a71 71 0 0 0 3.616-5.384c1.598-2.647 3.367-5.188 4.781-7.952 1.022-1.991 2.28-3.878 3.25-5.895 1.348-2.79 2.501-5.66 3.772-8.49l4.218-9.248c1.022-2.266 2.175-4.48 2.987-6.825 1.218-3.537 2.816-6.916 4.18-10.388 1.008-2.58 2.173-5.083 3.09-7.703q1.114-3.118 2.32-6.196c.838-2.162 1.558-4.362 2.305-6.55.196-.563.563-1.087.51-1.73Zm-168.02 28.348c.182.25.248.393.353.498q1.873 1.913 3.628 3.93a70.7 70.7 0 0 0 11.58 10.716 75 75 0 0 1 6 4.912c2.057 1.86 3.983 3.852 6.04 5.686 2.711 2.41 5.423 4.808 7.925 7.428a34 34 0 0 0 4.65 4.27q2.136 1.546 3.865 3.59a17 17 0 0 0 6.026 4.938c1.31.603 2.594 1.27 3.734 2.175a36.7 36.7 0 0 0 5.515 3.799c.773.406 1.598.773 2.266 1.323 2.751 2.28 5.777 4.205 8.227 6.825 1.113 1.192 2.607 1.965 3.51 3.38.12.183.29.393.59.314.013-.052.066-.118.053-.144-.944-1.94-1.716-3.956-2.856-5.79-1.284-2.044-2.345-4.231-3.694-6.236a36.7 36.7 0 0 0-5.11-6.013 47 47 0 0 1-4.493-4.978c-1.965-2.49-3.799-5.07-5.895-7.453-1.179-1.337-2.305-2.725-3.51-4.061-1.546-1.717-2.843-3.668-4.35-5.424a50 50 0 0 0-6.943-6.93c-2.043-1.611-4.048-3.275-6.235-4.716a67 67 0 0 0-8.345-4.834 48.5 48.5 0 0 0-7.1-2.646c-4.048-1.192-7.99-2.712-12.052-3.851-1.048-.288-2.07-.72-3.367-.747Zm85.332 85.517a29 29 0 0 0-2.764-5.266c-1.349-2.11-3.21-3.838-4.938-5.646q-1.979-2.096-3.996-4.14c-.694-.694-1.336-1.52-2.175-1.991-1.414-.812-2.554-1.991-4.02-2.712-1.167-.576-2.189-1.428-3.368-1.965a59 59 0 0 0-7.663-2.986 42 42 0 0 0-7.874-1.77c-2.423-.222-4.847-.55-7.296-.55-2.37 0-4.73-.314-7.1-.445-1.022-.052-2.018-.366-3.027-.34-1.794.065-3.563-.275-5.357-.315-2.083-.052-4.153-.262-6.223-.432-2.148-.17-4.31-.17-6.47-.25h-1.062c.641.46 1.296.735 1.938 1.049q3.38 1.677 6.72 3.38c1.52.773 3.105 1.428 4.677 2.096 2.856 1.205 5.725 2.345 8.738 3.13 2.738.72 5.58 1.062 8.24 2.045 2.738 1.008 5.541 1.729 8.37 2.384 1.481.34 2.922.85 4.337 1.388 1.323.51 2.607 1.088 4.022 1.258 2.803.34 5.633.59 8.292 1.677 1.493.615 3.13.904 4.44 1.99.695.577 1.442 1.128 2.254 1.52 2.934 1.428 5.568 3.354 8.371 4.992 1.01.59 1.952 1.257 2.947 1.886Zm75.116-18.156q-1.48.76-2.856 1.414c-2.817 1.31-5.306 3.066-7.388 5.384a72 72 0 0 0-7.27 10.035 38 38 0 0 0-4.18 9.484c-1.074 3.668-2.148 7.336-2.816 11.11-.354 1.99-1.009 3.942-1.18 5.96-.196 2.463-.563 4.912-.72 7.375-.026.445-.34.865-.105 1.44.642-.942 1.075-1.925 1.795-2.724 1.926-2.122 3.524-4.493 5.358-6.68 2.397-2.87 4.467-5.987 6.602-9.04a46 46 0 0 0 3.878-6.353c1.415-2.922 2.594-5.974 3.8-8.987.851-2.148 1.597-4.35 2.383-6.537.34-.956.76-1.9.956-2.882.341-1.73.813-3.42 1.153-5.148.25-1.245.577-2.49.616-3.865Zm-74.04-149.065c.195.039.234-.066.287-.158q1.14-2.318 2.227-4.69c.773-1.715 1.27-3.55 1.965-5.305.917-2.332 1.912-4.637 2.594-7.048.42-1.493.838-2.973.825-4.545q-.04-1.913-.184-3.84c-.17-2.527-.235-5.055-.55-7.57-.314-2.568-.85-5.096-1.323-7.65-.262-1.442-.655-2.87-.89-4.31-.289-1.848-.485-3.695-.708-5.555-.026-.184 0-.406-.236-.46s-.3.17-.419.316c-.773.943-1.507 1.952-2.345 2.83a17 17 0 0 0-3.236 4.964 29 29 0 0 0-1.663 5.673 75 75 0 0 0-.865 5.62c-.262 2.07-.052 4.139.118 6.209.144 1.677.327 3.367.694 4.965.524 2.28.708 4.585.878 6.89.131 1.834.21 3.695.773 5.437.878 2.698 1.86 5.37 2.057 8.214Zm3.955 91.818c-.105-.655-.118-1.127-.262-1.533-1.009-2.673-1.52-5.502-2.712-8.122-.917-2.03-1.31-4.284-2.305-6.301-.917-1.834-1.677-3.747-2.503-5.633-.85-1.978-2.292-3.577-3.55-5.306-1.48-2.03-2.908-4.074-4.467-6.04-2.188-2.75-4.65-5.28-6.72-8.134-1.35-1.86-3.04-3.42-4.65-5.057-1.088-1.1-2.149-2.227-3.289-3.261-1.06-.97-2.096-2.018-3.262-2.804q-2.017-1.35-4.087-2.66a56 56 0 0 0-6.026-3.431c-2.607-1.206-5.16-2.53-7.703-3.865-.196-.105-.38-.314-.64-.17-.04.275.156.406.313.524 1.664 1.153 3.183 2.489 4.808 3.707 1.676 1.258 3.065 2.803 4.401 4.389 1.887 2.227 3.694 4.532 5.817 6.536 2.423 2.28 4.938 4.468 7.205 6.93 2.75 2.974 5.24 6.17 7.964 9.17.826.904 1.52 1.94 2.306 2.87 1.231 1.453 2.24 3.052 3.38 4.545 1.27 1.677 2.463 3.42 3.825 5.03a46 46 0 0 1 4.493 6.079c1.808 3.013 3.25 6.248 5.188 9.17.72 1.087 1.415 2.227 2.49 3.353Zm38.108 106.24-.289-2.357a22.3 22.3 0 0 0-2.292-8.11q-.865-1.637-1.323-3.432a60 60 0 0 0-2.528-7.663 57.6 57.6 0 0 0-4.716-9.367 28.8 28.8 0 0 0-5.843-6.602c-2.148-1.795-4.82-2.62-7.336-3.694-.42-.184-.97-.655-1.323-.354-.42.367.144.93.17 1.415l.026.157a36.7 36.7 0 0 0 2.516 7.755c.864 1.9 1.912 3.708 2.803 5.594 1.493 3.13 2.948 6.3 4.69 9.288a54 54 0 0 0 4.56 6.825 34 34 0 0 0 6.483 6.354 10.5 10.5 0 0 1 2.974 2.895c.301.484.707 1.008 1.428 1.297m-43.794-37.925c-.13-.681.014-1.323-.104-1.952l-1.1-5.554c-.34-1.638-.59-3.315-1.075-4.913-1.009-3.314-1.808-6.668-2.685-10.008-.852-3.223-1.35-6.537-2.594-9.642-.42-1.035-.655-2.161-1.14-3.157-1.454-3.013-2.16-6.288-3.314-9.406-.459-1.244-.826-2.528-1.27-3.786q-1.206-3.34-2.477-6.668c-.576-1.52-.773-3.157-1.52-4.61-.248-.485-.628-.852-1.126-.865-.51 0-.472.629-.708.956q-.026.066-.026.157a30.1 30.1 0 0 0 .066 9.865q.484 3.144 1.585 6.183c1.061 2.869 1.44 5.934 2.62 8.79.917 2.214 1.69 4.493 2.463 6.76.773 2.279 1.938 4.4 2.45 6.785q.3 1.284.812 2.502c.956 2.345 1.794 4.73 2.685 7.1.59 1.572 1.074 3.197 1.991 4.612.668 1.02 1.402 2.004 2.057 3.039.8 1.27 1.808 2.423 2.437 3.825Zm-10.873-162.414c.223-.144.131-.34.118-.51q-.183-2.712-.039-5.45c.105-2.057.17-4.114.065-6.17-.183-3.46-1.296-6.747-2.07-10.087-.64-2.79-1.99-5.384-2.894-8.11-.996-3.052-1.455-6.222-2.162-9.34a85 85 0 0 0-1.926-7.244c-.969-3.052-2.148-6.026-2.803-9.17-.052-.236-.105-.524-.432-.472-.328.04-.184.34-.197.524 0 2.188-.052 4.376 0 6.55.092 3.04.105 6.079.432 9.092.262 2.397.393 4.82.904 7.205a77 77 0 0 0 1.441 5.725c.84 2.855 1.77 5.685 2.516 8.554.38 1.467.59 2.987.995 4.44.642 2.293 1.284 4.573 1.73 6.904a14.4 14.4 0 0 0 4.31 7.546Zm37.571 49.164c1.625-1.205 3.301-2.344 4.782-3.746 1.545-1.467 2.973-3.065 4.427-4.637a14.4 14.4 0 0 0 3.983-9.76q.17-3.08-.459-6.04-.628-2.947-.89-5.933c-.13-1.56-.145-3.118-.51-4.65-.578-2.464-1.115-4.927-1.914-7.324-.393-1.192-.72-2.436-1.742-3.498-.367 1.363-.315 2.673-.288 3.904.052 3.3.091 6.616.25 9.917.182 4.022.21 8.043-.119 12.065-.197 2.37-.839 4.664-1.389 6.982-1.113 4.69-3.354 8.804-6.13 12.72m30.574 210.937c.524-.302.904-.472 1.244-.72 2.03-1.494 4.284-2.62 6.55-3.682a80 80 0 0 0 6.734-3.642c2.28-1.35 4.401-2.987 6.51-4.598 1.965-1.493 3.72-3.196 4.611-5.607.55-1.48.708-3.013.917-4.703l-1.244.603c-1.572.8-3.118 1.65-4.73 2.37-3.418 1.534-6.798 3.106-9.772 5.438-2.03 1.585-3.93 3.3-5.593 5.266a32.8 32.8 0 0 0-4.494 7.27c-.275.59-.458 1.219-.746 1.992Zm-11.37-165.165c-.956.445-1.82.76-2.594 1.31-2.54 1.834-4.808 3.97-7.179 6a8.52 8.52 0 0 0-2.908 5.358c-.38 2.672-.052 5.305.576 7.912a56.3 56.3 0 0 0 3.08 9.982q.59 1.297 1.23 2.568c.053-.406-.065-.72-.13-1.061-.446-2.15-.747-4.31-1.114-6.472q-.472-2.62.04-5.161c.445-2.122 1.44-4.114 2.527-6 .84-1.454 1.834-2.816 2.634-4.297a44.5 44.5 0 0 0 3.013-6.602c.393-1.114.93-2.214.812-3.563Zm-42.876-.472a11.8 11.8 0 0 0-4.323-5.148 56.3 56.3 0 0 0-9.432-5.148c-.747-.29-1.44-.708-2.2-.957q-5.215-1.676-10.455-3.3c-2.083-.643-4.23-.892-6.38-1.154-.183-.026-.406-.013-.51.158-.132.235.052.393.21.55a22.3 22.3 0 0 0 5.645 4.166c3.825 1.886 7.912 3.21 11.803 4.964 2.11.957 4.231 1.926 6.51 2.385 2.044.419 3.892 1.336 5.778 2.187 1.048.485 2.161.839 3.327 1.284Zm49.452 110.93c2.135-.051 4.18-.064 6.223.145 1.86.184 3.72.485 5.593.25q2.948-.355 5.921-.407c2.568-.052 5.15-.052 7.56-1.14q2.58-1.153 4.663-3.065c.445-.406.34-.655-.118-.878a11.8 11.8 0 0 0-3.262-1.048c-2.293-.354-4.546.04-6.799.275q-3.183.34-6.34.904-2.083.367-4.088 1.035a96 96 0 0 0-6.183 2.358c-1.06.445-2.148.865-3.17 1.572M1212.7 242.573c.052.328.052.537.13.734a22.3 22.3 0 0 0 2.66 4.99c1.31 1.717 2.633 3.433 3.707 5.32 1.455 2.54 2.83 5.135 4.585 7.493.944 1.27 1.743 2.672 2.267 4.218q.76 2.306 1.231 4.69c.577 2.738 1.035 5.502 1.114 8.318.026.865.25 1.716.38 2.568l.288-.026c0-1.887-.079-3.786.013-5.66q.262-5.2-1.454-10.073a68 68 0 0 0-3.406-8.162c-1.14-2.292-2.542-4.427-3.773-6.668-1.048-1.912-2.568-3.523-4.022-5.148a9.2 9.2 0 0 0-3.694-2.58Zm63.89 215.993c1.571.524 2.802 1.664 4.31 2.266.653.262 1.322.51 2.07.59 1.727.17 3.43.485 5.16.694 1.401.17 2.777.105 3.995-.746.498-.341.668-.642.04-1.062-.8-.524-1.52-1.18-2.332-1.676a13.1 13.1 0 0 0-4.336-1.782c-1.27-.262-2.503-.026-3.734.183-1.755.302-3.51.642-5.16 1.533Zm-12.577-1.336c-2.909-3.825-7.035-5.423-11.515-6.393a26.2 26.2 0 0 0 11.515 6.393m-48.353-245.704c.092-1.021-1.729-4.467-2.475-4.9.641 1.704 1.755 3.093 2.475 4.9"/><path d="M1242.947 402.813q-.13 0-.236-.027c-1.258-.628-2.24.158-3.288.63-1.926.837-3.838 1.388-6.04.968a26.2 26.2 0 0 0-7.505.053c-2.254.249-4.48.812-6.76.59a21 21 0 0 1-4.834-.983c-1.48-.511-2.895-1.205-4.388-1.69-.51-.17-.996-.406-1.022-.982-.026-.642.406-.996.995-1.193a28.8 28.8 0 0 1 5.935-1.336q4.847-.59 9.72-1.1c2.384-.262 4.768-.563 7.152-.708 2.057-.13 4.114.04 6.066.773 1.008.38 2.03.813 2.698 1.782q.485.747 1.39 1.048c.313.092.628.327.837.59.236.288.537.628.315 1.087-.21.432-.603.484-1.022.484Zm-31.19-1.39c.326.446.798.473 1.178.643 2.45 1.074 4.99 1.663 7.703 1.506 2.174-.118 4.27-.655 6.432-.786 2.135-.13 4.257-.301 6.392.04a6.55 6.55 0 0 0 3.708-.302c1.192-.497 2.28-1.18 3.445-1.703.537-.25.118-.42-.092-.602-1.506-1.376-3.406-1.612-5.292-1.743-3.38-.235-6.694.433-10.022.865-3.628.458-7.283.786-10.886 1.428-.85.157-1.716.314-2.567.655"/></g><g fill="#083b10" stroke="#fffaec" stroke-width="2.85" paint-order="stroke"><path d="M904.624 180.159c.354-.32.627-.536.878-.787 1.55-1.482 3.238-2.804 4.88-4.172l2.735-2.246c1.174-.98 2.303-2.04 3.648-2.85.741-.445 1.402-1.095 2.19-1.528.227-.125.444-.308.706-.273.444.068.547-.194.684-.548a19.4 19.4 0 0 1 2.508-4.423c.638-.866 1.322-1.755 2.132-2.542.775-.764 1.516-1.62 2.302-2.371.947-.9 2.064-1.63 3.17-2.36a20.06 20.06 0 0 1 9.45-3.238c2.884-.24 5.78-.25 8.676-.32 1.8-.044 3.556-.455 5.346-.557 2.36-.15 4.731-.434 7.023-1.015 1.516-.388 3.078-.593 4.571-1.106l.445-.148c1.983-.365 3.864-1.094 5.79-1.664q2.714-.787 5.404-1.688c1.63-.57 3.284-1.117 4.88-1.755.73-.297 1.504-.525 2.223-.89a1.48 1.48 0 0 1 1.698.217c.445.354.126.844.034 1.3-.285 1.584-1.242 2.816-2.074 4.115a31 31 0 0 1-3.717 4.617c-1.049 1.072-2.28 1.984-3.522 2.873-.947.673-2.007 1.163-2.862 1.984-.353.33-.878.524-1.334.775a72 72 0 0 1-7.125 3.522c-1.892.798-3.864 1.31-5.768 2.04-1.516.582-3.158.845-4.73 1.312-2.862.855-5.849.98-8.733 1.596-2.19.456-4.39.684-6.578 1.106-.9.17-1.824.182-2.725.216-2.77.103-5.426.867-8.14 1.289-1.288.205-2.587.273-3.887.41q-2.348.25-4.594.992c-1.539.49-2.918 1.368-4.4 1.983a18.2 18.2 0 0 0-5.119 3.078q-1.493 1.31-3.01 2.588a35 35 0 0 0-3.933 3.956c-1.197 1.357-2.576 2.52-3.796 3.819a26 26 0 0 1-2.314 2.155c-.866.718-1.585 1.63-2.383 2.416-.843.82-1.55 1.767-2.462 2.543-.673.57-1.254 1.31-1.824 2.006-.74.9-1.619 1.642-2.337 2.565-1.06 1.38-2.189 2.713-3.283 4.058q-1.596 1.984-3.158 4.025c-.57.752-1.06 1.618-1.664 2.302-.74.844-1.004 2.007-1.927 2.68-.296.216-.32.58-.502.854q-.969 1.517-2.143 2.873c-.604.696-1.265 1.334-1.87 2.04a53.6 53.6 0 0 0-5.243 7.536c-.844 1.54-1.756 3.044-2.61 4.572-.719 1.276-1.244 2.656-2.019 3.898-.342.57-.41 1.232-.672 1.824q-1.403 3.192-2.748 6.419c-.285.695-.422 1.447-.684 2.154-.65 1.836-1.322 3.66-1.767 5.552-.045.205-.228.388-.387.638.547.012.615-.41.752-.684q.97-1.995 1.892-4.012c.046-.092.046-.217.103-.285 1.117-1.232 1.55-2.873 2.565-4.184.89-1.152 1.733-2.383 2.61-3.546.65-.866 1.517-1.618 2.246-2.462 1.152-1.322 2.486-2.462 3.705-3.705.787-.798 1.722-1.402 2.588-2.075a49 49 0 0 1 5.153-3.58q1.493-.854 2.998-1.687a94 94 0 0 1 6.624-3.465 73 73 0 0 0 3.762-1.961c1.3-.718 2.656-1.357 3.967-2.03 1.516-.774 3.01-1.607 4.56-2.325q3.363-1.55 6.635-3.237c2.12-1.095 4.332-2.052 6.395-3.25 1.174-.683 2.52-1.025 3.637-1.744 1.265-.81 2.713-1.14 4.024-1.812 1.413-.718 3.032-.912 4.56-1.334q2.85-.775 5.666-1.642c.456-.136.763-.604 1.31-.638.354-.023.64.034.787.365.148.319.034.604-.216.855-1.152 1.106-2.098 2.394-3.17 3.568-1.436 1.573-2.599 3.374-4.24 4.8-.605.524-1.14 1.253-1.642 1.937-.547.753-1.23 1.39-1.835 2.075-.9 1.026-1.802 2.064-2.76 3.02-.83.833-1.789 1.563-2.678 2.338-1.106.958-2.349 1.699-3.58 2.428-1.345.81-2.656 1.676-4.035 2.44-1.39.764-2.839 1.46-4.196 2.303q-2.052 1.277-4.012 2.656c-1.254.878-2.61 1.619-3.842 2.576-1.186.924-2.656 1.482-3.979 2.223-1.3.73-2.793 1.095-3.944 2.087-.445.376-1.049.387-1.562.684l-3.716 2.097c-1.175.65-2.45 1.083-3.569 1.836-.49.33-1.117.456-1.63.73-1.619.866-3.294 1.584-4.936 2.382-.89.433-1.767.957-2.736 1.277-.752.25-1.425.832-2.2 1.117a46 46 0 0 0-4.366 1.904 25 25 0 0 0-3.74 2.143q-1.254.957-2.565 1.858c-.524.353-.912.764-1.014 1.414-.023.136.023.41-.17.364-.548-.136-.65.285-.754.582-.467 1.3-1.197 2.474-1.846 3.67a62 62 0 0 0-2.44 5.176c-.467 1.095-.74 2.269-1.163 3.397-.752 2.007-1.049 4.139-1.733 6.145-.49 1.448-.74 2.998-1.379 4.366-.89 1.904-1.243 3.945-1.904 5.905-.627 1.824-.798 3.82-1.049 5.757-.228 1.722.126 3.375.354 5.04.182 1.265.33 2.54.593 3.784.24 1.106.558 2.189.706 3.317q.57 4.139.867 8.31c.194 2.783.558 5.553.855 8.334q.41 3.854.057 7.73-.114 1.402-.09 2.815c.033 2.28-.115 4.56-.57 6.772-.503 2.417-.697 4.913-1.506 7.25-.73 2.11-1.266 4.275-1.858 6.419a20.5 20.5 0 0 0-.548 6.92c.183 2.827.251 5.665.502 8.492.091 1.004-.125 2.007.057 2.953.388 2.052.137 4.115.388 6.156.125 1.06-.023 2.132.102 3.203q.091.82-.752 1.015c-1.642.33-2.018-.057-2.04-1.334q-.115-5.05-.286-10.077c-.057-1.665-.034-3.352-.33-4.982-.525-2.92-.445-5.848-.468-8.778 0-1.79-.09-3.58-.08-5.381 0-1.231-.376-2.383-1.664-3.124a38 38 0 0 1-4.343-3.043c-.73-.57-1.357-1.29-1.96-2.007-.286-.353-.64-.593-.959-.89-.889-.865-2.018-1.39-2.987-2.142-.57-.445-1.23-.775-1.846-1.163-1.528-.97-3.238-1.402-4.937-1.95-1.242-.398-2.599-.535-3.739-1.22-.684-.41-1.277-.945-1.96-1.344-.833-.49-1.528-1.152-2.36-1.653q-1.517-.924-2.748-2.326-.798-.923-1.71-1.721c-.73-.616-1.3-1.368-2.018-1.995-.934-.81-1.949-1.425-2.975-2.064-1.687-1.06-3.648-1.425-5.415-2.291-1.06-.513-2.303-.661-3.397-1.117-2.428-1.004-4.857-2.03-7.353-2.873-.97-.33-1.927-.73-2.953-.912a2.2 2.2 0 0 1-1.254-.718c-.387-.434-.479-.878 0-1.346a5.7 5.7 0 0 1 2.474-1.527c1.493-.41 2.84-1.22 4.39-1.516 2.496-.49 4.992-.72 7.523-.456 2.2.228 4.423.307 6.6.672 1.266.205 2.588.08 3.831.593.33.137.878.103 1.334.125 1.88.092 3.785.297 5.552.878 2.052.684 4.07 1.562 5.722 3.067q2.052 1.915 4.093 3.853c.194-.182.148-.365.046-.513-.82-1.357-1.083-2.918-1.448-4.412-.41-1.664-1.038-3.26-1.47-4.925-.822-3.17-1.7-6.304-2.04-9.576-.138-1.288-.537-2.542-.594-3.83-.08-1.687-.262-3.386-.148-5.084.125-1.973.068-3.968.33-5.928.388-2.84.536-5.69.764-8.528.285-3.431.376-6.874.513-10.317.091-2.53.285-5.05.114-7.57l-.17-2.576c-.08-1.083.66-1.516 1.401-1.824.536-.228 1.13.217 1.573.582a8 8 0 0 1 2.2 2.759c.217.467.73.718.992 1.185.73 1.277 1.71 2.394 2.486 3.625.73 1.152 1.744 2.087 2.37 3.33.32.649.924 1.14 1.335 1.778 1.174 1.846 2.37 3.682 3.203 5.722.034.092.057.206.25.217-.079-1.368-.125-2.736-.239-4.093a84 84 0 0 1-.239-6.794c0-1.927-.068-3.853-.068-5.78q0-3.921-.456-7.786a114 114 0 0 1-.593-6.19c-.103-1.63-.217-3.272-.217-4.914 0-1.151-.16-2.325-.24-3.5q-.25-3.42-.432-6.84c-.023-.478-.32-.832-.354-1.322-.296-3.864-.479-7.74-.433-11.616 0-.72-.296-.98-.89-1.13a20.5 20.5 0 0 1-4.742-1.675 9.1 9.1 0 0 0-2.758-.98c-.764-.137-1.47-.4-2.246-.07-.376.172-.787.08-1.209-.067-1.208-.4-2.428-.148-3.625.137a35.3 35.3 0 0 0-6.338 2.143c-1.55.707-3.192 1.129-4.708 1.892-1.015.513-2.166.74-3.192 1.232a65 65 0 0 1-5.13 2.097c-1.232.468-2.588.616-3.842 1.049-2.007.684-4.08 1.129-6.065 1.88-1.254.48-2.61.708-3.956.867a39 39 0 0 1-7.227.103c-2.52-.182-5.028-.091-7.547-.205-2.2-.103-4.412-.16-6.567-.65-1.79-.41-3.613-.764-5.369-1.311-3.295-1.037-6.715-1.231-10.078-1.858-.478-.091-.798-.4-1.23-.547-.309-.103-.229-.593 0-.89.398-.49.945-.81 1.504-1.083q2.633-1.3 5.29-2.553 2.77-1.323 5.574-2.565c1.277-.582 2.656-.935 3.888-1.562 1.63-.832 3.477-1.094 5.061-2.052a6.8 6.8 0 0 1 2.27-.787c1.492-.296 2.78-1.117 4.23-1.55 1.96-.593 3.783-1.62 5.801-2.075.65-.148 1.163-.615 1.824-.81.97-.284 1.995-.421 2.941-.81 2.417-1.002 4.993-1.161 7.547-1.3 1.493-.078 3.01.036 4.514.23.33.045.673 0 .97 0-2.27-1.05-4.766-1.676-6.864-3.124-1.402-.957-2.804-1.904-4.126-2.998a78 78 0 0 1-4.093-3.648 22 22 0 0 1-2.04-2.19 17 17 0 0 0-2.132-2.2c-.82-.694-1.357-1.595-2.04-2.382-.617-.706-1.3-1.38-1.802-2.177-.65-1.026-1.55-1.847-2.337-2.747-1.209-1.38-2.257-2.92-3.705-4.093-.342-.274-.445-.741-.753-1.083a25 25 0 0 1-4.423-6.247c-.547-1.186-1.356-2.246-1.653-3.534-.125-.547-.285-1.117.171-1.55.422-.4.935-.16 1.46-.115 1.105.092 2.108.536 3.191.684.867.114 1.653.536 2.497.787 1.026.308 2.143.365 3.078.844 1.436.752 3.055 1.014 4.446 1.915.616.399 1.425.604 2.166.855q2.303.764 4.435 1.858c1.402.718 2.986 1.049 4.24 2.052.331.262.821.296 1.232.479 2.03.935 3.99 2.006 6.03 2.884 1.984.866 3.9 1.88 5.94 2.656a21.7 21.7 0 0 1 3.67 1.653c.958.582 2.098.787 2.953 1.437 1.117.855 2.485 1.185 3.591 2.052.923.718 2.04 1.23 3.1 1.767 2.6 1.31 5.188 2.633 7.684 4.126 1.3.776 2.463 1.79 3.74 2.634.866.558 1.63 1.242 2.416 1.88a21.7 21.7 0 0 1 4.63 4.857c.193-.456.215-.832.204-1.197-.068-3.933-.103-7.877-.25-11.81-.138-3.625-.08-7.24-.08-10.864 0-1.22-.08-2.451-.388-3.694-.433-1.756-.684-3.58-1.22-5.324-1.037-3.33-.798-6.863-1.607-10.214-.49-2.03-.82-4.127-1.505-6.088a6.84 6.84 0 0 0-2.2-2.987c-1.368-1.037-2.2-2.61-3.569-3.648-.843-.638-1.596-1.402-2.622-1.824-.763-.32-1.3-1.003-1.858-1.596-.399-.433-.707-.877-1.277-1.174a6.8 6.8 0 0 1-1.778-1.482c-.9-1.014-2.006-1.721-3.112-2.474-1.46-.991-2.702-2.302-4.16-3.283-1.232-.843-2.213-1.995-3.547-2.713-.273-.148-.433-.513-.695-.718a26 26 0 0 0-3.637-2.554c-.319-.182-.57-.433-.843-.627-1.06-.73-1.96-1.664-2.873-2.553-.752-.73-1.642-1.311-2.36-2.087-.672-.73-1.539-1.288-2.348-1.88-.946-.696-1.676-1.608-2.542-2.383-.9-.798-1.528-1.824-2.44-2.622-.707-.616-1.265-1.414-1.892-2.132-.764-.878-1.665-1.585-2.429-2.462a24 24 0 0 0-2.872-2.85c-.833-.673-1.448-1.482-2.064-2.27-.74-.934-1.676-1.663-2.37-2.632-.423-.593-1.232-.798-1.654-1.494-.32-.524-.388-.98-.057-1.448.365-.513.912-.387 1.345-.136q1.266.752 2.463 1.618 1.003.719 2.03 1.38 1.504.957 3.054 1.824c1.026.593 2.132 1.049 3.192 1.573 1.528.752 3.078 1.425 4.583 2.234 1.05.57 1.95 1.334 2.964 1.95 1.79 1.07 3.431 2.37 5.153 3.534 1.596 1.07 3.25 2.086 4.845 3.158 1.048.706 2.017 1.584 2.952 2.485q1.54 1.493 3.09 2.952a91 91 0 0 0 5.37 4.709q1.173.912 2.211 2.017c.706.753 1.3 1.642 2.131 2.28.308.228.331.57.525.844.684.969 1.448 1.87 2.166 2.804.672.878 1.448 1.71 2.223 2.53 1.026 1.096 2.052 2.213 2.861 3.524 1.402 2.29 2.143 4.833 3.101 7.307.707 1.824.97 3.774 1.653 5.563a34 34 0 0 1 1.585 5.769c.045.205.022.57.32.547.33-.023.17-.376.181-.57q.251-6.1 1.14-12.141c.49-3.397.582-6.83 1.22-10.203q.627-3.33 1.38-6.612c.296-1.322.262-2.702.638-4.001.695-2.36.843-4.845 1.858-7.137.513-1.174.73-2.496.97-3.773.284-1.448.843-2.827 1.116-4.275.4-2.098 1.494-3.956 1.984-6.03.228-1.004.89-1.848 1.151-2.862.4-1.494 1.015-2.953 1.243-4.47.353-2.45.25-4.935.08-7.42-.057-.855.022-1.745-.707-2.372-1.665-1.425-3.352-2.724-5.757-2.576-2.098.125-4.218.057-6.316.182-2.747.17-5.495.183-8.185-.25-3.238-.536-6.475-.263-9.713-.434-1.995-.102-3.99-.216-5.916-.832a8 8 0 0 1-1.266-.57c-.843-.456-1.812-.57-2.759-.718-1.664-.25-3.169-1.015-4.765-1.482-1.493-.433-2.907-1.072-4.389-1.516-1.117-.33-2.097-1.083-3.112-1.687-1.596-.958-3.34-1.574-5.084-2.2-1.095-.4-2.269-.776-3.147-1.494-1.584-1.3-3.329-2.394-4.856-3.773-.559-.502-1.414-.65-1.676-1.528-.182-.638-.068-.958.57-1.06l5.37-.89q3.09-.512 6.224-.376 3.522.17 7.034.297c1.778.057 3.568.182 5.266.615 1.528.388 3.067.73 4.583 1.14 1.038.285 2.12.285 3.17.468 2.952.524 5.95.57 8.926.843q2.394.228 4.833.263c2.178.034 4.173.798 6.156 1.55 1.87.707 3.83 1.117 5.666 1.88 1.208.503 2.428 1.107 3.431 2.007.15.126.308.17.468.25a8 8 0 0 1 3.408 3.102c.388.707.992 1.265 1.323 2.006.638 1.425 1.47 2.748 1.983 4.24.456 1.312.855 2.669 1.54 3.889.74 1.333.683 2.736.718 4.16v.867c.376-.091.4-.388.49-.604.707-1.687 1.63-3.272 2.52-4.88.774-1.402 1.664-2.724 2.45-4.126.98-1.756 2.075-3.443 3.135-5.153 1.05-1.687 2.166-3.33 3.158-5.05.866-1.516 2.006-2.84 2.93-4.298l2.006-3.124c1.106-1.687 1.938-3.51 2.85-5.29.673-1.3 1.608-2.496 1.893-3.966.33-1.722 1.368-3.26 1.174-5.12-.114-1.105-.069-2.2-.753-3.191-.353-.513-.467-1.208-.672-1.824-.536-1.55-1.414-2.953-2.223-4.355-.49-.843-.82-1.79-1.39-2.565q-.799-1.117-1.574-2.268c-.684-1.015-1.174-2.11-1.767-3.17-.97-1.721-1.437-3.602-1.915-5.46-.764-2.941-1.06-5.951-.274-8.972.445-1.7.89-3.41 1.642-4.993a68 68 0 0 1 2.52-4.788c.831-1.448 1.698-2.92 2.005-4.617.08-.48.263-.855.844-.832.593.022.581.5.684.9.65 2.668 1.186 5.38 1.995 7.992.502 1.618.923 3.27 1.562 4.856a34.2 34.2 0 0 1 2.485 9.029c.205 1.88.866 3.682 1.231 5.529.365 1.858.433 3.762.342 5.666-.08 1.71.07 3.43 0 5.152-.08 2.007-.285 4.002-.399 6.008-.023.49-.285.89-.456 1.3-.593 1.47-.125 3.146-.935 4.56-.718 1.254-1.345 2.53-2.166 3.728-.934 1.356-2.052 2.599-2.872 4.297 1.846-1.39 3.488-2.69 5.198-3.898 1.915-1.357 3.82-2.725 5.814-3.99a54 54 0 0 0 5.176-3.648c.934-.753 1.858-1.54 2.827-2.27.581-.444 1.014-1.06 1.607-1.55a54 54 0 0 1 4.857-3.704q2.291-1.494 4.674-2.862c1.46-.832 2.998-1.482 4.525-2.12 1.391-.582 2.964-.832 4.48-1.026 1.255-.16 2.51-.4 3.763-.502l4.97-.353c2.782-.194 5.575-.194 8.345-.525 1.185-.148 2.394-.193 3.58-.342 1.641-.205 3.214-.73 4.867-.912 1.21-.136 2.451-.25 3.603-.604 1.54-.467 3.135-.684 4.685-1.071q1.277-.331 2.576-.627c.4-.092.833-.046.992.41.194.57.034 1.163-.444 1.47-.947.605-1.665 1.47-2.543 2.155-1.459 1.129-2.998 2.155-4.468 3.272-.878.673-1.836 1.117-2.793 1.619-2.44 1.31-5.062 2.166-7.604 3.215-1.915.786-3.933 1.14-5.87 1.8-2.019.696-4.082 1.015-6.18 1.095q-3.568.137-7.148.16c-1.972 0-3.99.023-5.928.387-3.078.582-6.247.422-9.268 1.254-2.052.57-4.104 1.197-5.882 2.474-.992.718-2.098 1.288-3.215 1.824-.775.376-1.414 1.026-2.12 1.55a34 34 0 0 1-5.416 3.364 13.7 13.7 0 0 0-3.648 2.565q-1.276 1.22-2.667 2.348c-.274.228-.376.57-.616.798-1.505 1.39-2.52 3.17-3.853 4.685-.74.844-1.402 1.767-2.155 2.6q-1.459 1.607-2.724 3.442-.912 1.346-1.858 2.645c-.935 1.266-1.688 2.68-2.474 4.047-.673 1.174-1.266 2.417-2.143 3.477-.342.41-.468.924-.719 1.38a72 72 0 0 0-2.314 4.72c-.798 1.812-1.584 3.636-2.52 5.39-1.14 2.145-2.234 4.322-3.123 6.579a40 40 0 0 0-2.109 6.988c-.228 1.175-.752 2.315-1.106 3.477-.684 2.258-1.573 4.446-2.052 6.772-.17.855-.467 1.687-.638 2.554-.057.307-.103.604-.023.98.81-.798 1.095-1.847 1.653-2.736 1.243-1.984 2.406-4.013 3.682-5.974 1.277-1.96 2.907-3.625 4.378-5.403 1.208-1.46 2.52-2.85 3.602-4.39a28.5 28.5 0 0 0 2.645-4.628c.582-1.276 1.015-2.61 1.585-3.876.695-1.516.98-3.157 1.721-4.628.57-1.13.798-2.462 1.562-3.431.798-1.004 1.38-2.144 2.2-3.147q1.54-1.87 3.055-3.762c.787-.97 1.71-1.79 2.543-2.68.798-.854 1.675-1.71 2.68-2.416 1.367-.957 2.69-1.983 4.034-2.964q1.733-1.276 3.523-2.496c1.995-1.334 3.967-2.702 6.008-3.967 1.767-1.095 3.51-2.223 5.312-3.284a79 79 0 0 0 6.772-4.332c.41-.307.89-.478 1.242-.9.297-.342.832-.536 1.197-.194s.547.81.217 1.402c-1.163 2.11-2.36 4.184-3.42 6.35a48 48 0 0 1-3.078 5.472c-1.129 1.72-2.143 3.51-3.306 5.21-1.038 1.505-2.007 3.055-3.055 4.548a31 31 0 0 1-3.204 4.059c-1.174 1.174-2.143 2.542-3.306 3.739-.912.935-1.96 1.733-2.964 2.588-.73.615-1.55 1.117-2.303 1.687-.775.604-1.607 1.14-2.348 1.778a25 25 0 0 1-3.853 2.565c-.787.445-1.437 1.072-2.257 1.482q-2.075 1.026-4.16 2.007c-1.153.558-2.236 1.265-3.319 1.95-.855.535-1.698 1.105-2.759 1.105q-.307.01-.433.285c-.82 1.687-2.154 2.987-3.26 4.457-.639.855-1.414 1.596-2.132 2.326-.787.798-1.528 1.676-2.28 2.497-.969 1.07-1.972 2.2-2.702 3.5-.66 1.162-1.413 2.28-2.132 3.408-.205.33-.535.593-.615.98-.205.958-.98 1.562-1.494 2.303a14.8 14.8 0 0 0-2.337 5.666c-.615 3.18-1.197 6.36-1.573 9.587-.513 4.31-.74 8.642-1.277 12.94-.193 1.55-.17 3.123-.387 4.662-.137.969.045 1.915 0 2.873-.16 3.02.296 6.019.091 9.04-.125 1.813.057 3.637-.08 5.438-.08 1.026.023 2.063-.216 3.09-.126.524.216 1.128.216 1.743 0 2.19.091 4.378.148 6.567 0 .068.046.137.114.319l.57-1.163c1.197-2.234 1.562-4.708 2.098-7.136q.49-2.155 1.13-4.275a38.8 38.8 0 0 0 1.606-7.672c.148-2.087.182-4.161.24-6.248.056-2.03-.058-4.07.148-6.076a10.3 10.3 0 0 1 1.14-3.773c1.037-1.927 2.017-3.9 3.271-5.69a24 24 0 0 1 3.626-4.365c.957-.844 1.812-1.813 2.793-2.633 1.276-1.06 2.428-2.292 3.91-3.101.627-.342 1.026-.98 1.71-1.311 1.083-.525 2.063-1.254 3.066-1.893 1.368-.877 2.828-1.618 4.287-2.245 2.428-1.05 4.868-2.075 7.364-2.964 1.54-.548 3.09-1.026 4.63-1.574 1.47-.513 2.963-.912 4.445-1.39 2.302-.741 4.685-1.163 7-1.847 2.28-.684 4.628-.935 6.908-1.494 2.61-.638 5.323-.81 7.888-1.55 1.995-.581 4.047-.866 6.054-1.334 2.68-.627 5.438-.98 8.14-1.505 1.094-.216 2.154-.57 3.237-.855.433-.114.935-.228 1.254.16.308.365.057.82-.09 1.197a18 18 0 0 1-1.403 2.77 39 39 0 0 1-2.52 3.66c-.98 1.31-2.268 2.314-3.534 3.328-1.505 1.22-3.169 2.19-4.81 3.204q-1.939 1.22-3.945 2.303c-1.528.809-3.032 1.675-4.57 2.473-2.042 1.06-4.162 1.904-6.249 2.862-2.2 1.014-4.56 1.562-6.748 2.599-.605.285-1.3.376-1.95.57a72 72 0 0 1-6.93 1.756 19.8 19.8 0 0 0-5.074 1.732c-1.174.593-2.28 1.39-3.397 2.11-1.174.763-2.314 1.652-3.648 2.177-.82.319-1.38 1.049-2.246 1.356-1.847.65-3.614 1.528-5.45 2.235q-2.222.832-4.502 1.493c-1.836.559-3.648 1.186-5.62 1.334-1.699.125-3.443.49-5.085 1.072-.832.296-.752 1.15-.752 1.812 0 2.577.17 5.164-.297 7.695-.376 2.052-.467 4.127-.9 6.156-.262 1.22-.285 2.497-.639 3.682q-.524 1.699-.866 3.432c-.09.456-.148.935-.32 1.368-.695 1.8-1.208 3.682-2.108 5.415q-.456.912-.696 1.904c-.353 1.322-.946 2.565-1.402 3.84a17.1 17.1 0 0 0-.798 6.226c.034 1.87.126 3.75.091 5.62-.022 1.026.468 1.858.787 2.747.684 1.87 1.117 3.842 1.927 5.632.695 1.539 1.048 3.18 1.755 4.697.285.615.365 1.356.422 2.052.24 2.417.228 4.833.182 7.262-.034 1.926-.889 3.659-1.527 5.426-.878 2.417-1.858 4.8-1.87 7.42q.012 2.498.194 4.995.296 4.309.684 8.618c.08.9.25 1.824.274 2.69.034 1.357.114 2.714.136 4.082.07 4.195.15 8.379.377 12.562q.25 5.108.444 10.226.057 1.437.046 2.884c0 .958.32 1.79.832 2.6.673 1.07.81 2.394 1.493 3.477.08.125.126.307.377.285q.193-1.893.775-3.705c.615-1.847.9-3.797 1.596-5.598.695-1.801.957-3.716 1.596-5.506.843-2.383 1.334-4.868 2.234-7.24q1.106-3.01 2.326-5.94c.9-2.13 1.573-4.33 2.303-6.508q1.31-3.82 2.542-7.66c.501-1.585 1.06-3.215 1.96-4.686.536-.878.764-1.927 1.163-2.896.707-1.755 1.095-3.636 1.767-5.392.434-1.117.787-2.154.32-3.272-.787-1.88-1.14-3.853-1.482-5.848-.183-1.06-.525-2.097-.9-3.1-.605-1.574-.514-3.238-.799-4.846-.65-3.59-.24-7.227-.65-10.818a47 47 0 0 0-.604-3.774c-.194-.991-.194-1.972-.148-2.964q.24-5.506.615-11.012c.114-1.63.07-3.295.525-4.868q.57-1.983.957-3.99c.445-2.325 1.197-4.56 1.847-6.828.33-1.14.821-2.235 1.277-3.34.593-1.403 1.151-2.828 1.847-4.184.74-1.437 1.322-2.953 2.257-4.31.547-.798 1.015-1.664 1.642-2.428q.501-.638 1.197-.98c1.31-.65 2.257-.16 2.45 1.288.251 1.847.57 3.705.65 5.563.092 2.052-.08 4.104-.102 6.156-.034 2.497.034 4.993-.057 7.49q-.137 3.523-.114 7.034c.011 2.166.125 4.343.49 6.44.33 1.916.274 3.797.125 5.655q-.205 2.394-.65 4.765c-.478 2.657-1.504 5.13-2.462 7.616-.81 2.109-1.22 4.275-1.744 6.43-.49 2.006-.467 4.046-.855 6.053.661-1.87 1.47-3.683 2.257-5.484.604-1.38.9-2.895 1.653-4.15.832-1.39 1.05-2.963 1.801-4.366.56-1.037.833-2.257 1.06-3.42.16-.786.605-1.413.856-2.131.273-.776.41-1.596.73-2.372.512-1.288.866-2.633 1.344-3.933.582-1.607 1.152-3.214 1.836-4.776 1.071-2.451 2.143-4.902 3.374-7.262q1.072-2.04 2.27-4.036a41 41 0 0 1 6.178-8.242l3.83-3.82c.923-.922 2.018-1.686 3.044-2.495q2.097-1.62 4.218-3.227l3.67-2.781c.878-.673 1.825-1.277 2.657-2.007q1.277-1.128 2.61-2.166c1.311-1.014 2.645-2.052 4.184-2.77.65-.308 1.243-.718 1.858-1.094q.456-.262.97-.251c.478 0 1.014.046 1.23.502.194.399-.045.832-.273 1.23-.41.719-.66 1.54-1.094 2.235-.878 1.38-1.277 2.976-2.064 4.4-.5.9-.718 1.95-1.208 2.862-.718 1.31-1.06 2.793-1.972 4.013-.285.387-.41.9-.627 1.345-.81 1.71-1.494 3.477-2.28 5.187a37 37 0 0 1-1.893 3.785c-.843 1.39-1.733 2.747-2.485 4.195-.399.764-1.174 1.288-1.436 2.326Zm-65.63 28.67a4.6 4.6 0 0 0-.42-1.504c-.49-.935-.913-1.904-1.369-2.85-1.106-2.326-1.916-4.788-3.523-6.874-.81-1.05-1.414-2.292-2.348-3.238q-1.129-1.14-2.372-2.177c-.877-.73-1.835-1.368-2.69-2.132-1.197-1.072-2.633-1.824-3.922-2.77-1.083-.787-2.302-1.323-3.43-2.052-.97-.627-2.099-1.06-3.159-1.585-1.448-.718-2.759-1.63-4.138-2.451-1.23-.73-2.565-1.254-3.75-2.075-1.095-.752-2.44-1.037-3.637-1.687a25 25 0 0 0-3.603-1.585c-1.744-.627-3.306-1.584-5.027-2.223-.388-.148-.82-.24-1.15-.478-1.358-1.015-3-1.437-4.447-2.27-.73-.421-1.653-.603-2.303-1.048-1.174-.798-2.53-1.106-3.75-1.744a45 45 0 0 0-4.4-1.984c-.434-.17-.913-.285-1.312-.513-1.87-1.094-4.002-1.55-5.974-2.405-1.368-.581-2.907-.775-4.377-1.14-.17-.046-.4-.137-.513.034-.137.217.057.4.193.536.855.866 1.437 1.96 2.406 2.725 1.06.843 1.892 1.983 3.283 2.37q.536.138.9.742c-.695-.137-1.162-.536-1.71-.753a5.7 5.7 0 0 1-2.177-1.447c-.764-.844-1.596-1.642-2.394-2.463-.513-.536-1.094-1.026-1.242-1.801-.057-.308-.285-.49-.57-.388-.32.114-.183.48-.057.582.695.615.752 1.596 1.3 2.28.877 1.094 1.436 2.405 2.382 3.5.684.775 1.31 1.653 1.983 2.45 1.46 1.733 3.033 3.364 4.492 5.085q2.246 2.69 4.55 5.324a97 97 0 0 0 5.106 5.506q2.337 2.28 4.89 4.31a25 25 0 0 0 5.256 3.248c2.12.958 4.286 1.824 6.532 2.428.547.149.866.65 1.448.719 1.197.148 2.257.695 3.317 1.23.56.274 1.095.594 1.665.833a92 92 0 0 0 3.83 1.528c1.357.5 2.622 1.22 4.058 1.482 1.813.319 3.375 1.276 5.062 1.903.866.32 1.46 1.05 2.314 1.38 1.437.558 2.84 1.23 4.378 1.527.73.137 1.482.422 2.086.82.638.434 1.311.685 2.04.89 1.106.308 2.417.057 3.204 1.22.433.639 1.254.696 1.858 1.06a6.8 6.8 0 0 0 2.178.787c.24.046.421.114.627-.114.25-.285 0-.536-.08-.695a5.7 5.7 0 0 0-1.95-1.87c-.786-.49-1.63-.9-2.109-1.881.935.479 1.517 1.345 2.565 1.676Zm6.156 133.06q.41-.272.434-.683c0-1.174.296-2.314.41-3.477.137-1.561.205-3.123.365-4.674.25-2.394.285-4.788.41-7.182.171-3.385.114-6.771-.422-10.134-.319-1.984-.285-4.002-.399-5.997-.136-2.28-.136-4.56-.672-6.817-.342-1.413-.445-2.895-.753-4.32-.524-2.44-1.185-4.857-1.14-7.388a6.84 6.84 0 0 0-1.048-3.876 15.7 15.7 0 0 1-1.813-3.636c-.684-1.915-1.733-3.705-2.166-5.712-.262-1.197-.9-2.257-1.22-3.42-.615-2.257-1.79-4.24-2.907-6.258-.627-1.13-1.482-2.086-2.166-3.17-.593-.934-1.345-1.744-1.95-2.678-.99-1.54-2.302-2.85-3.1-4.526-.103-.217-.32-.468-.536-.376-.456.205-.456-.114-.536-.365-.045-.148.057-.376-.285-.433.24 2.78 0 5.54-.057 8.287-.08 3.318-.285 6.624-.49 9.93-.102 1.607-.5 3.18-.558 4.788q-.114 2.622-.274 5.232a64 64 0 0 0-.137 7.262c.148 2.588.285 5.176.992 7.707.56 2.006.73 4.104 1.436 6.099.72 2.017.867 4.206 1.665 6.224.593 1.505.81 3.135 1.425 4.663a43 43 0 0 0 2.052 4.582c.695 1.277 1.573 2.417 2.382 3.59.958 1.392 2.132 2.623 2.987 4.117.935 1.619 1.642 3.329 2.383 5.027.82 1.88 1.39 3.876 2.588 5.586a9.1 9.1 0 0 1 1.151 2.782 5.7 5.7 0 0 0 1.334 2.53c0-.262.023-.41 0-.558-.433-2.27-.342-4.606-.867-6.863a34 34 0 0 1-.786-4.685c-.137-1.47-.89-2.76-1.049-4.207-.137-1.242-.25-2.485-.593-3.705-.25-.89-.319-1.835-.467-2.76.182.047.24.127.273.218.616 1.733.73 3.59 1.323 5.335.513 1.516.74 3.124 1.151 4.674.49 1.847.9 3.705 1.13 5.609.147 1.208.136 2.44.5 3.66m1.688-193.265c.148.16.364.103.558.08 3.044-.456 6.11-.695 9.086-1.642 2.633-.843 5.233-1.79 7.832-2.724 2.576-.924 4.73-2.52 7.034-3.865 1.288-.752 2.394-1.835 3.693-2.553 1.3-.72 2.736-1.254 4.15-1.722 1.983-.65 4.104-.775 6.1-1.505 1.743-.638 3.624-.81 5.345-1.618 1.323-.627 2.793-.89 4.15-1.494 2.44-1.094 4.97-1.972 7.364-3.203 1.973-1.015 3.956-1.995 5.894-3.067 1.494-.82 3.044-1.527 4.503-2.405 1.311-.798 2.656-1.55 3.853-2.554a32 32 0 0 0 2.862-2.656c.672-.718 1.163-1.573 1.778-2.303a12.5 12.5 0 0 0 2.086-3.42c-.273-.137-.513-.045-.763.023-1.608.388-3.192.832-4.81 1.094-2.36.388-4.709.707-7.035 1.323-2.782.73-5.632 1.22-8.447 1.824-2.885.627-5.826.98-8.699 1.72-1.675.434-3.374.719-5.027 1.255-1.858.604-3.819.89-5.71 1.482q-3.125 1.003-6.214 2.098c-.89.308-1.88.433-2.634.935-1.368.912-2.93 1.322-4.389 1.915a40 40 0 0 0-7.775 4.127c-1.07.74-2.154 1.47-3.169 2.325-.74.639-1.55 1.266-2.325 1.87a16 16 0 0 0-2.828 2.622q-.718.9-1.56 1.698c-.856.82-1.529 1.779-2.11 2.736-.878 1.46-1.927 2.805-2.679 4.344-.513 1.049-1.004 2.097-1.277 3.237-.034.149-.103.32.114.377.17.045.342-.012.387-.183.206-.832.844-1.322 1.403-1.892 1.151-1.174 2.291-2.35 3.59-3.363.24-.194.605-.262.8-.49 1.275-1.517 2.963-2.497 4.593-3.49 1.96-1.196 4.047-2.176 5.916-3.556 1.46-1.083 3.101-1.926 4.63-2.93.421-.273.877-.797 1.572-.592-1.026.764-1.984 1.55-3.09 2.12q-.82.445-1.56.992c-1.403 1.003-2.92 1.824-4.333 2.816q-1.938 1.334-3.956 2.553a29.6 29.6 0 0 0-3.773 2.805c-.776.672-1.505 1.413-2.246 2.097-.958.89-2.075 1.608-2.85 2.76Zm-25.9 57.958c.215-.057.637.205.74-.171.08-.308-.342-.4-.57-.547-1.3-.776-2.748-1.22-4.16-1.688-1.87-.627-3.75-1.185-5.61-1.87-1.037-.375-1.915-.991-2.873-1.47-.638-.308-1.334-.456-1.938-.82-1.07-.65-2.29-.787-3.488-1.004-2.155-.4-4.344-.48-6.52-.604-.98-.057-1.985-.148-2.942-.023-2.827.365-5.655.707-8.31 1.893-1.243.558-2.589.82-3.865 1.356-2.896 1.23-5.928 2.098-8.835 3.329-1.346.57-2.782.958-4.127 1.573-1.197.547-2.474.9-3.705 1.39-2.884 1.13-5.677 2.44-8.527 3.638-.502.216-1.072.319-1.505.627-1.357.957-2.987 1.31-4.39 2.143-.159.09-.353.182-.307.387.034.17.228.183.388.194q.73.034 1.46.194c1.38.33 2.78.536 4.16.844 1.641.364 3.34.513 4.936 1.07 1.47.514 2.987.925 4.514 1.13q4.606.604 9.257.433c2.61-.08 5.233.205 7.855.137.114 0 .228.137.353.16.228.034.48.102.696.045.558-.148 1.14-.205 1.71-.32.74-.147 1.493-.147 2.234-.353 1.448-.387 2.896-.752 4.275-1.368 1.322-.581 2.76-.82 4.115-1.333 1.676-.627 3.512-.81 5.165-1.608 1.071-.513 2.291-.764 3.294-1.38 1.357-.843 2.907-1.15 4.32-1.846.901-.445 1.996-.581 2.92-1.026a51 51 0 0 1 6.976-2.656c.718-.228 1.436-.48 2.28-.445Zm96.135-55.644c-.376.183-.65.274-.89.422-1.755 1.026-3.282 2.37-4.935 3.557q-2.19 1.607-4.332 3.272c-1.118.855-2.19 1.755-3.34 2.553-1.038.719-2.075 1.482-3.01 2.303-.924.81-1.96 1.47-2.873 2.314-.935.867-1.972 1.653-2.884 2.554q-1.733 1.71-3.318 3.58a47 47 0 0 0-3.762 4.913 76 76 0 0 0-3.169 5.312c-1.083 2.03-2.006 4.139-2.998 6.213-.456.958-.673 2.064-1.208 2.942-.878 1.447-1.14 3.089-1.836 4.582-.81 1.745-1.3 3.637-1.88 5.484-.434 1.38-.9 2.736-1.517 4.035-.342.74-.433 1.55-.844 2.269-.946 1.642-1.482 3.466-2.314 5.176-.969 1.983-1.64 4.138-2.667 6.099-.582 1.105-.958 2.268-1.437 3.408q-.068.228-.194.422c-.832.958-.82 2.2-1.197 3.317.627-.524.878-1.288 1.22-1.938 1.117-2.11 2.656-3.933 3.9-5.95.204-.331.24-.776.603-.98 1.117-.616 1.414-1.86 2.178-2.76 1.083-1.265 1.903-2.758 2.827-4.138.547-.82 1.231-1.516 1.778-2.325.764-1.14 1.7-2.155 2.6-3.181q1.037-1.231 2.165-2.405c.89-.912 1.574-2.052 2.486-2.942.775-.752 1.402-1.63 2.12-2.416q1.573-1.7 3.112-3.432c1.13-1.265 2.371-2.462 3.33-3.842.66-.946 1.39-1.846 2.051-2.793.661-.946 1.482-1.8 2.177-2.736.513-.684 1.015-1.436 1.71-1.995a10.3 10.3 0 0 0 2.27-2.496c.478-.753 1.093-1.425 1.515-2.223.297-.57.502-1.21.912-1.71.924-1.152 1.54-2.508 2.257-3.785 1.152-2.03 1.904-4.264 2.85-6.395.662-1.494 1.414-2.93 2.052-4.424.228-.524.41-1.083.741-1.55.833-1.163 1.06-2.588 1.722-3.853-.844.604-1.425 1.505-2.394 1.96 1.46-2.12 3.58-3.761 4.423-6.44Zm-.205 62.108c.456-.365.866-.821 1.38-1.083 1.38-.707 2.541-1.733 3.807-2.6q1.231-.843 2.45-1.744c1.506-1.106 3.147-2.03 4.743-3.01.32-.193.64-.763 1.083-.125.08.114.24.034.342-.057l1.254-1.174c.126-.125.194-.342.07-.502-.172-.216-.332 0-.457.092-.16.125-.285.285-.502.353-2.063.65-4.195 1.049-6.247 1.767-1.995.684-3.956 1.436-5.837 2.36q-2.394 1.15-4.742 2.405c-1.175.627-2.417 1.163-3.59 1.79-1.985 1.06-4.014 2.03-6.032 3.032q-2.326 1.14-4.64 2.349a116 116 0 0 1-3.944 1.995c-1.687.81-3.329 1.687-5.028 2.485a86 86 0 0 0-6.794 3.59l-3.728 2.144a49 49 0 0 0-9.553 7.114c-1.79 1.72-3.625 3.408-4.97 5.483-1.129 1.722-1.87 3.694-2.805 5.54-.513 1.015-1.003 2.053-1.619 3.044.89-.376 1.7-.855 2.554-1.242q2.383-1.05 4.788-2.03c.604-.25 1.265-.387 1.813-.718 1.356-.82 2.815-1.413 4.218-2.131a81 81 0 0 1 4.275-2.007c1.79-.786 3.5-1.755 5.232-2.656.741-.388 1.562-.638 2.223-1.106 1.106-.775 2.337-1.288 3.5-1.926 1.813-.992 3.796-1.688 5.575-2.736 1.071-.64 2.188-1.21 3.214-1.938a61.6 61.6 0 0 1 8.254-5.267c1.197-.65 2.474-1.174 3.637-1.881l4.104-2.463a33 33 0 0 0 5.255-4.16c1.277-1.232 2.428-2.588 3.66-3.865q1.31-1.345 2.576-2.725c.855-.923 1.573-1.983 2.52-2.838q.33-.32.49-.741c-.365-.15-.57.057-.707.262-.183.285-.49.456-.753.524-1.345.33-2.405 1.152-3.51 1.904-.4.274-.833.502-1.22.82q-1.266.993-2.634 1.825c-.696.444-1.482.74-2.155 1.22q-.707.5-1.573.627Zm18.776-45.384 5.37-.581c1.88-.205 3.715-.616 5.574-.935 2.473-.422 4.981-.638 7.432-1.265a114 114 0 0 0 10.34-3.124 46.7 46.7 0 0 0 12.335-6.703 21.7 21.7 0 0 0 4.47-4.127l.398-.456c.718-.912 1.436-1.824 2.04-2.816.41-.684.741-1.413 1.163-2.097.091-.15.285-.32.183-.49-.137-.23-.388-.103-.559-.012-.9.445-1.87.65-2.77 1.14-1.345.718-2.907.946-4.344 1.562-1.653.707-3.442 1.07-5.152 1.676q-2.03.718-4.139 1.083c-.74.125-1.31.65-2.04.672-1.049.046-2.04.376-3.044.616a73 73 0 0 1-8.333 1.493c-2.45.285-4.914.4-7.365.582-1.653.125-3.306.136-4.959.228q-2.85.148-5.63.763c-.97.217-1.86.639-2.749 1.06a21.7 21.7 0 0 0-4.218 2.53c-.216.172-.365.4-.615.549a12.5 12.5 0 0 0-3.056 2.69c-.98 1.23-2.097 2.37-2.895 3.796q-.924 1.676-1.984 3.306c-.125.183-.387.376-.182.616.17.194.467.09.672.023 1.232-.434 2.508-.217 3.751-.285 1.653-.08 3.272-.354 4.868-.696 1.596-.353 3.17-.786 5.438-.786Zm-70.829 55.359c.741-1.323 1.015-2.77 1.311-4.161.57-2.714.776-5.495 1.55-8.174.4-1.402.64-2.862 1.3-4.173.776-1.55 1.29-3.192 1.938-4.788 1.015-2.52 1.152-5.266 1.55-7.934a16 16 0 0 0 0-5.597 31 31 0 0 1-.524-4.538c-.182-2.758-.057-5.517-.034-8.276l.046-11.172c0-1.3.102-2.6.023-3.9-.069-1.14-.33-2.267-.513-3.396-.046-.296.08-.741-.263-.81-.228-.045-.524.263-.786.434a1.1 1.1 0 0 0-.262.296c-.662 1.106-1.528 2.075-1.984 3.295-.148.387-.262.82-.513 1.128-.9 1.152-1.094 2.657-1.938 3.842-.604.844-.73 1.95-1.186 2.862-1.003 1.995-1.208 4.218-2.006 6.27-.752 1.926-.935 4.024-1.425 6.03-.365 1.482-.445 3.044-.559 4.572-.17 2.234-.25 4.468-.364 6.703-.092 1.847-.365 3.682-.377 5.54 0 2.645.958 5.164.878 7.82-.045 1.528.228 3.067.194 4.595-.046 2.37.205 4.685.661 7 .103.512.126 1.048.308 1.527.707 1.835 1.015 3.773 1.493 5.666l.57 2.268.194-.022c.262-2.212.661-4.4.741-6.635v3.716ZM787.56 65.828a13.7 13.7 0 0 0 4.218.775c.558.012 1.105.16 1.641.25 1.938.354 3.876.696 5.848.867 1.585.137 3.181.263 4.72.627 1.174.274 2.314.513 3.511.525 1.357.023 2.713.023 4.047.148 1.847.182 3.671.467 5.46 1.094 1.7.582 3.523.82 5.313 1.095 1.254.182 2.52.296 3.785.479.82.114 1.653.17 2.462.353 1.482.353 2.942.832 4.39 1.288 1.994.627 4.08.924 6.02 1.836 1.63.763 3.111 1.71 4.57 2.736.661.467 1.3.98 2.291 1.345-.296-.445-.296-.753-.467-1.06q-.923-1.653-1.88-3.272a6.5 6.5 0 0 0-2.726-2.634 4.6 4.6 0 0 1-.866-.524 14.8 14.8 0 0 0-3.944-2.177c-1.346-.513-2.77-.764-4.093-1.403-1.756-.843-3.705-1.151-5.586-1.596-2.006-.478-4.104-.262-6.145-.49-2.496-.285-5.004-.444-7.49-.878-1.744-.307-3.5-.456-5.232-.832s-3.363-1.128-5.164-1.242c-5.176-.331-10.329-1.015-15.527-.49q-2.44.273-4.868.615c-.17.023-.399.068-.456.25-.08.229.114.366.251.525.308.376.82.422 1.13.82.9 1.14 2.21 1.802 3.384 2.53 1.517.937 3.056 1.917 4.88 2.316 1.003.217 2.03.593 2.907 1.129 2.006 1.22 4.012 2.394 6.36 2.86.582.115 1.152.33 1.722.503 1.55.467 2.998 1.265 4.651 1.447 1.026.114 2.064.308 3.021.684 1.391.536 2.76 1.106 4.253 1.163 2.656.103 5.312.194 7.957.137 1.972-.046 3.921.137 5.86.33q2.017.229 4.012.217c1.254 0 2.508-.125 3.762-.273 1.288-.15 2.61-.035 3.91-.092.97-.045 1.95.114 2.964-.114-.73-.74-1.675-1.003-2.473-1.482-1.482-.877-3.204-1.288-4.845-1.8-1.334-.423-2.748-.582-4.093-.993-.57-.182-1.015-.581-1.619-.706a25 25 0 0 0-3.716-.456q-1.505-.103-3.01-.251-1.413-.126-2.759-.547c-1.265-.41-2.587-.525-3.864-.844-1.847-.467-3.67-1.072-5.655-.992-1.653.08-3.328-.16-4.993-.308-2.04-.193-4.047-.706-6.065-1.026-3.67-.57-7.34-1.14-10.944-2.03-.228-.056-.467-.056-.775-.421Zm.4 246.092c.181.296.49.137.717.25 1.596.764 3.33 1.198 4.902 2.04.866.457 1.904.617 2.747 1.118 1.46.855 3.124 1.186 4.651 1.893 1.357.638 2.85.992 4.23 1.64 1.54.73 2.93 1.666 4.24 2.69.605.48 1.29 1.016 1.676 1.643.605.958 1.562 1.54 2.19 2.463.227.342.774.456 1.037.786.66.82 1.618 1.232 2.416 1.859.582.467 1.334.82 1.893 1.322 1.14 1.015 2.553 1.368 3.921 1.744 1.425.4 2.953.57 4.253 1.22 1.3.638 2.6 1.31 3.82 2.166 1.104.787 2.2 1.619 3.362 2.348.193.126.433.16.581.377.844 1.242 1.687 2.473 3.226 2.964.205.068.354.273.513.444.707.775 1.71 1.06 2.6 1.55-.992-2.37-2.76-4.138-4.412-5.984a10.3 10.3 0 0 1 2.348 1.903c-.388-.9-.456-1.858-.912-2.724-.296-.56-.695-1.072-.89-1.7a16 16 0 0 0-2.576-4.661c-1.368-1.836-2.975-3.49-4.229-5.404-.422-.638-.969-1.13-1.402-1.71-.445-.604-1.117-1.015-1.402-1.733a6.84 6.84 0 0 0-2.372-2.713 33 33 0 0 1-2.416-2.12 14.25 14.25 0 0 0-7.513-3.865 43 43 0 0 0-6.167-.741c-1.893-.091-3.705-.684-5.598-.798-2.177-.137-4.332-.513-6.52-.48-3.147.047-6.054.913-8.893 2.19Zm72.206-214.047c1.05-.24 1.63-1.071 2.463-1.333 1.39-.445 2.565-1.346 3.933-1.802 1.128-.376 1.903-1.333 2.986-1.755 1.22-.468 2.19-1.368 3.25-2.075q1.641-1.106 3.191-2.394c1.06-.89 2.258-1.62 3.318-2.508.9-.752 1.687-1.63 2.553-2.44.753-.706 1.494-1.46 2.087-2.257.638-.866 1.38-1.653 2.017-2.52.821-1.15 1.733-2.268 2.52-3.43.82-1.22 1.824-2.303 2.52-3.603q.193-.376.455-.695c.673-.776 1.197-1.7 1.687-2.565l2.36-4.173c.183-.33.183-.775.525-1.014.193-.137.456-.342.216-.536-.262-.217-.41.08-.58.308-.913 1.174-1.825 2.348-3.01 3.294-.74.593-1.483 1.23-2.12 1.927a28.5 28.5 0 0 1-4.504 3.92q-1.687 1.21-3.329 2.475-1.664 1.3-3.158 2.839c.285-1.117 1.197-1.7 1.961-2.417.775-.741 1.767-1.186 2.6-1.824a57 57 0 0 0 3.955-3.34q2.702-2.474 5.347-5.016c1.63-1.585 2.918-3.443 4.537-5.016.216-.217.456-.547.41-.89-1.322.57-2.485 1.369-3.682 2.11-.388.239-.844.376-1.208.684-1.152.969-2.53 1.56-3.774 2.382s-2.52 1.573-3.67 2.463c-.856.66-1.813 1.15-2.645 1.87-1.072.934-2.36 1.618-3.546 2.427-1.425.97-2.873 1.938-4.195 3.056-.912.763-1.824 1.516-2.679 2.348q-1.129 1.106-2.223 2.246c-1.23 1.254-2.303 2.633-3.386 3.978a28.5 28.5 0 0 0-2.77 4.082c-.787 1.402-1.243 2.918-1.904 4.354-.524 1.129-.695 2.417-1.22 3.534a26 26 0 0 0-1.288 3.306m9.314-94.574c-.08.57-.58.866-.74 1.357-.674 1.96-1.79 3.705-2.61 5.597a32 32 0 0 0-1.905 7.228c-.217 1.265.136 2.508.285 3.762.262 2.234 1.014 4.297 1.79 6.384.877 2.325 2.45 4.218 3.716 6.304 1.003 1.64 1.755 3.386 2.68 5.06.81 1.483 1.367 3.114 1.811 4.767q.24.98.434 1.983c.444-1.322.547-2.69.763-4.035.354-2.19.24-4.412.217-6.635-.034-2.805.24-5.598-.616-8.356-.798-2.588-.775-5.336-1.527-7.946-.49-1.687-.82-3.386-1.516-5.028-.89-2.11-1.289-4.411-1.802-6.657-.285-1.254-.535-2.531-.98-3.762Zm73.644 28.306c-1.243.114-2.314.696-3.5.82-.57.058-1.15.058-1.698.206-2.075.593-4.218.775-6.327 1.152-3.945.706-7.969.695-11.97.934-2.793.16-5.598.228-8.38.639-2.587.387-5.152.912-7.558 2.006-.547.25-1.162.388-1.63.73-1.197.866-2.576 1.413-3.819 2.189a59 59 0 0 0-5.7 4.092c.468.137.821-.045 1.174-.16.593-.182 1.197-.58 1.78-.558 1.63.057 3.145-.593 4.753-.661s3.192-.468 4.8-.536c3.51-.137 7.021-.33 10.544-.25 2.941.068 5.791-.56 8.618-1.312a86 86 0 0 0 6.088-1.904c1.573-.535 3.032-1.333 4.571-1.938 1.163-.456 2.372-.9 3.386-1.698q1.425-1.095 2.896-2.155c.661-.49 1.573-.695 1.972-1.596M781.836 99.868c.057.263.045.354.091.4 1.231 1.196 2.508 2.348 3.682 3.59.924.98 1.881 1.927 2.782 2.93.843.935 1.755 1.836 2.53 2.805a17.1 17.1 0 0 0 3.91 3.522c1.87 1.243 3.387 2.85 5.051 4.298 1.151 1.003 2.27 2.006 3.557 2.839q1.436.957 2.724 2.097 1.21 1.049 2.486 1.938 1.39.992 2.633 2.143c1.151 1.06 2.497 1.859 3.66 2.896.353.308.9.33 1.15.764.548.935 1.54 1.402 2.27 2.166.752.786 1.687 1.482 2.507 2.246.696.638 1.517 1.037 2.246 1.596.97.74 2.03 1.322 2.85 2.28.536.627 1.186 1.174 1.585 1.972.205-.24.148-.4.102-.547a16 16 0 0 0-2.325-4.367 57 57 0 0 0-3.466-4.115q-1.345-1.482-2.462-3.135c-.308-.445-.547-.97-.924-1.311-.98-.9-1.698-2.04-2.77-2.884-.73-.57-1.38-1.345-2.12-1.858-1.163-.821-2.064-1.95-3.318-2.645l-.216-.228c-.673-.946-1.642-1.62-2.428-2.463a27 27 0 0 0-2.246-2.2 45 45 0 0 0-2.713-2.154c-1.745-1.29-3.614-2.394-5.393-3.637-1.254-.878-2.542-1.7-3.75-2.668-.912-.74-2.018-1.322-3.078-1.892a148 148 0 0 0-5.997-3.032c-.843-.4-1.732-.707-2.61-1.357Zm58.607 117.626c.137-.65-.057-1.243-.068-1.836-.012-1.026-.456-1.527-1.425-1.926-.707-.285-.775 0-.74.58.101 2.235.147 4.47.261 6.704.08 1.608.24 3.215.353 4.822.012.217.046.468.251.536.228.069.308-.182.342-.342q.513-1.995.946-4.001c.32-1.516.24-3.044.07-4.526Zm78.318-45.954c-.82-.068-2.759 1.243-3.032 1.88Z"/><path d="M828.69 201.488c-.662-.524-1.506-.718-2.144-1.254.752.365 1.618.536 2.143 1.254m-1.972 57.809c.376 2.93 1.642 5.598 2.405 8.596-.775-.9-2.644-6.931-2.405-8.596m44.437-128.466a6.27 6.27 0 0 1 3.431-1.607c-1.277.262-2.166 1.334-3.43 1.607m49.178-15.972c0-.684.548-.912.878-1.288.103-.114.285-.17.422-.057.182.148.068.376-.034.479-.354.342-.639.798-1.254.866Zm-8.493 43.48c-.855 1.892-2.45 3.18-3.853 4.617a21.7 21.7 0 0 1 3.853-4.617m-4.103 5.187c-.89.775-1.345 1.88-2.178 2.679.64-.97 1.072-2.086 2.178-2.68m-22.789 68.413c-.114.33-.468.342-.696.479-.855.535-1.755 1.037-2.553 1.63-1.31.969-2.748 1.744-4.116 2.599l-4.16 2.554c-1.186.73-2.497 1.254-3.58 2.177-.616.524-1.573.559-1.995 1.39-.057.103-.274.07-.342-.045-.09-.148.08-.228.17-.296 1.255-.924 2.486-1.858 3.808-2.68 1.596-.991 3.34-1.72 4.902-2.735 1.22-.798 2.463-1.562 3.626-2.44.672-.513 1.561-.832 2.257-1.3q1.094-.718 2.257-1.3c.114-.056.24-.113.433-.022Zm24.92-15.22c1.231-.752 2.383-1.607 3.74-2.108.478-.183.911-.49 1.367-.718.16-.08.377-.15.445.114q.023.262-.25.33c-1.54.468-2.874 1.357-4.333 1.984Zm-19.494 11.777c-1.459.877-2.667 2.166-4.389 2.622 1.38-1.004 2.748-2.041 4.39-2.622m4.024-2.657c.672-.98 1.71-1.345 2.747-1.721-.935.547-1.755 1.265-2.747 1.72m-29.162 18.8q.285-1.003 1.311-1.06Zm4.56-82.365c-.216 3.18-1.368 5.996-1.413 8.983-.126-1.778.581-7.626 1.413-8.983m.012-.752c-.263-1.334.444-2.565.32-3.945.455.616.227 2.919-.32 3.945m-82.65-95.84c-.137.092-.16.126-.183.126-.467-.057-.9-.205-1.185-.604-.012-.023.068-.16.102-.16.513-.011.798.388 1.266.638m73.804 30.792 7.706-8.39.285.26c-2.542 2.829-4.97 5.77-7.763 8.369Zm9.438-9.622a16 16 0 0 1 3.363-3.33 12.5 12.5 0 0 1-3.363 3.33m8.231-8.322c-.57.775-1.037 1.504-1.847 1.96-.433.24-.524.878-.969 1.186-.148.103-.307.308-.456.16-.216-.206.057-.331.183-.48.718-.888 1.573-1.64 2.394-2.416.17-.16.308-.365.695-.4Z"/></g><rect width="422.291" height="53.11" x="414.253" y="-169.559" fill="none" rx="0" ry="0" transform="translate(415.61 590.08)"/><path fill="#083b10" d="M853.28 445.316q3.86.65 6 2.67 2.13 2.03 2.13 4.94 0 3.9-3.03 6.16-3.03 2.25-8.34 2.25h-16.07v-1.27q.75-.37 1.99-.63 1.25-.26 3.04-.45l.47-26.04-5.5-1.03v-1.36h16.54q4.37 0 6.93 1.92 2.56 1.93 2.56 5.13 0 2.68-1.83 4.72-1.83 2.05-4.89 2.99m-10.1-13.78v28.82l-1.65-1.65h10.67q2.49-.56 3.86-2.07 1.36-1.5 1.36-3.71 0-2.73-2.09-4.37-2.09-1.65-5.57-1.65h-7.05v-2.63h7.89q5.41-1.93 5.41-5.97 0-2.39-1.69-3.76-1.69-1.36-4.66-1.36h-8.13Zm54.66 27.17 1.74-7.61h1.36v10.24h-26.32v-1.27q1.32-.42 2.56-.68 1.25-.26 2.47-.4l.47-26.04-5.5-1.03v-1.36h25.85v9.26h-1.36l-1.65-6.63h-15.27l1.64-1.65v12.65h8.79l1.46-4.04h1.22v10.71h-1.22l-1.46-4.09h-8.79v13.59l-1.64-1.65Zm34.78-28.15 10.48 28.62q.89.19 1.72.4.82.21 1.62.45v1.31h-12.5v-1.31l4.84-.9-9.4-27.16h.98l-9.77 27.02q1.45.24 2.84.5 1.39.25 2.8.54v1.31h-11.99v-1.31l3.2-1.04 10.71-28.43Zm5.4 20.58h-15.79v-2.49h15.79Zm35.16 10.68q-5.73 0-8.79-2.61-3.05-2.6-3.05-7.45l.33-18.8-5.5-1.03v-1.36h14.14v1.22q-.94.38-2.13.63-1.2.26-2.85.45v19.08q0 3.48 2.12 5.27 2.11 1.78 6.11 1.78 2.96 0 4.91-.89t3.41-2.91l.28-22.24-5.31-1.03v-1.36h13.3v1.22q-1.04.38-2.28.66-1.25.28-2.8.42l.05 18.42q0 4.99-3.15 7.76t-8.79 2.77m28.72-31.26h27.73v11.84h-1.37l-1.73-9.21h-8.89v25.76l6.39.98v1.41h-16.87v-1.27q1.65-.42 3.22-.7 1.58-.28 3.13-.42l.47-25.76H1005l-1.74 9.21h-1.36Zm55.32 20.54h-1.93l-10.86-19.09v-.98h4.14l9.02 16.64h-1.27l9.17-16.64h2.87l.04.89Zm6.86 10.24h-15.75v-1.27q1.51-.42 2.94-.68t2.84-.4l.19-11.04h3.95v11.04l5.83.94Zm-17.34-27.87-5.88-1.5v-1.41h14.38v1.13q-2.07.75-4.18 1.19-2.12.45-4.32.59m18.61 0-6.39-1.5v-1.41h13.2v1.13q-1.64.75-3.33 1.19-1.7.45-3.48.59m44.41 28.34q-2.25 0-4.6-.35t-4.75-1.06l1.5-2.72q2.17.61 4.49.91 2.33.31 4.77.31 1.46 0 2.92-.1 1.45-.09 2.91-.32l-1.6.47q.94-.47 1.72-1.2.77-.73 1.24-1.62.47-.9.47-1.84 0-1.55-1.29-2.72-1.29-1.18-3.31-2.19t-4.28-2.04q-2.26-1.04-4.3-2.31t-3.34-2.93q-1.29-1.67-1.29-4.02 0-2.45 1.53-4.23 1.53-1.79 4.28-2.75 2.74-.97 6.5-.97 2.03 0 4.09.29 2.07.28 4.05.8l-1.04 2.82q-2.11-.52-4.28-.78-2.16-.26-4.32-.26-1.5 0-2.96.14t-2.91.43l1.73-.52q-1.26.7-2.06 1.83t-.8 2.49q0 1.69 1.29 2.96t3.31 2.31q2.02 1.03 4.3 2.04t4.3 2.23q2.03 1.23 3.32 2.85t1.29 3.83q0 2.49-1.62 4.34-1.62 1.86-4.51 2.87t-6.75 1.01m-7.66-10.43 2.26 9.07-3.95-.05.19-9.02Zm19.08-11.42h-1.5l-2.16-8.74h3.95Zm48.88 21.38h-14.1v-1.17q1.32-.43 2.54-.73 1.22-.31 2.4-.45l.47-26.04-5.41-1.03v-1.36h14.1v1.22q-1.08.33-2.35.63-1.27.31-2.68.45v26.13l5.03.94Zm-19.92 0h-14.15v-1.27q1.31-.42 2.56-.68t2.47-.4l.47-26.04-5.5-1.03v-1.36h14.15v1.22q-1.13.33-2.4.63-1.27.31-2.54.45v26.13l4.94.94Zm13.01-14.38h-19.88v-2.68h19.88Zm33.84 14.81q-4.04 0-7.14-1.93t-4.82-5.38q-1.71-3.46-1.71-8.11 0-4.75 1.85-8.39 1.86-3.64 5.1-5.73 3.25-2.1 7.34-2.1 4.08 0 7.21 1.95 3.13 1.96 4.86 5.41 1.74 3.45 1.74 8.01 0 4.8-1.81 8.46-1.81 3.67-5.05 5.74t-7.57 2.07m.38-2.68q2.96 0 5.19-1.65 2.24-1.64 3.53-4.65t1.29-7q0-3.91-1.22-6.77-1.22-2.87-3.5-4.44-2.28-1.58-5.38-1.58-2.02 0-4.05.71-2.02.7-3.66 2.16l1.46-1.74q-3.67 5.69-3.67 12.13 0 3.8 1.27 6.72 1.27 2.91 3.5 4.51t5.24 1.6m27.22-28.53h16.22q3.1 0 5.26 1.03 2.16 1.04 3.34 3.01 1.17 1.97 1.17 4.75 0 2.96-1.38 5.17-1.39 2.21-3.88 3.45-2.49 1.25-5.83 1.25h-7.71v-2.64h10.81q2.12-1.41 3.08-3.05.97-1.65.97-3.85 0-3.2-1.72-4.85-1.71-1.64-5-1.64h-6.11v25.8l6.48.94v1.41h-15.7v-1.27q.8-.42 2.02-.68 1.23-.26 3.01-.4l.47-26.04-5.5-1.03Z"/></g><path fill="transparent" stroke="transparent" d="M721.5 0h557v517h-557z"/></g></svg>